<svg width="880" height="166" viewBox="0 0 880 166" fill="none" xmlns="http://www.w3.org/2000/svg">
<path d="M19.04 30.64H2.4V20.8H47.68V30.64H30.88V80H19.04V30.64ZM55.52 16.16H67.2V32.24L66.72 40.64C68.5333 38.9333 70.56 37.4133 72.8 36.08C75.0933 34.7467 77.76 34.08 80.8 34.08C85.6533 34.08 89.1733 35.68 91.36 38.88C93.5467 42.0267 94.64 46.4267 94.64 52.08V80H82.88V53.52C82.88 50.0533 82.3733 47.6267 81.36 46.24C80.4 44.8533 78.8 44.16 76.56 44.16C74.6933 44.16 73.0933 44.5867 71.76 45.44C70.4267 46.2933 68.9067 47.5467 67.2 49.2V80H55.52V16.16ZM125.332 81.12C122.185 81.12 119.252 80.5867 116.532 79.52C113.865 78.4533 111.519 76.9333 109.492 74.96C107.519 72.9333 105.945 70.48 104.772 67.6C103.652 64.6667 103.092 61.36 103.092 57.68C103.092 54.0533 103.679 50.8 104.852 47.92C106.025 44.9867 107.572 42.5067 109.492 40.48C111.465 38.4 113.705 36.8267 116.212 35.76C118.719 34.64 121.305 34.08 123.972 34.08C127.065 34.08 129.759 34.6133 132.052 35.68C134.399 36.7467 136.345 38.24 137.892 40.16C139.492 42.08 140.692 44.3467 141.492 46.96C142.292 49.5733 142.692 52.4267 142.692 55.52C142.692 56.5867 142.639 57.6267 142.532 58.64C142.425 59.6 142.292 60.3467 142.132 60.88H114.532C115.012 64.56 116.345 67.36 118.532 69.28C120.772 71.1467 123.572 72.08 126.932 72.08C128.799 72.08 130.532 71.8133 132.132 71.28C133.785 70.7467 135.412 69.9733 137.012 68.96L141.012 76.16C138.772 77.7067 136.292 78.9333 133.572 79.84C130.905 80.6933 128.159 81.12 125.332 81.12ZM132.612 53.12C132.612 50.08 131.919 47.68 130.532 45.92C129.145 44.1067 127.012 43.2 124.132 43.2C121.785 43.2 119.679 44.0533 117.812 45.76C115.945 47.4133 114.799 49.8667 114.372 53.12H132.612ZM273.811 20.8H285.651V80H273.811V20.8ZM298.458 35.2H308.058L308.858 41.2H309.178C311.044 39.2267 313.071 37.5467 315.258 36.16C317.444 34.7733 320.004 34.08 322.938 34.08C326.138 34.08 328.724 34.7733 330.698 36.16C332.671 37.4933 334.191 39.4133 335.258 41.92C337.284 39.7333 339.418 37.8933 341.658 36.4C343.951 34.8533 346.564 34.08 349.498 34.08C354.298 34.08 357.818 35.68 360.058 38.88C362.298 42.0267 363.418 46.4267 363.418 52.08V80H351.658V53.52C351.658 50.0533 351.151 47.6267 350.138 46.24C349.124 44.8533 347.551 44.16 345.418 44.16C342.858 44.16 339.978 45.84 336.778 49.2V80H325.018V53.52C325.018 50.0533 324.511 47.6267 323.498 46.24C322.484 44.8533 320.911 44.16 318.778 44.16C316.218 44.16 313.338 45.84 310.138 49.2V80H298.458V35.2ZM374.767 35.2H384.367L385.167 39.84H385.487C387.354 38.24 389.407 36.88 391.647 35.76C393.94 34.64 396.287 34.08 398.687 34.08C401.46 34.08 403.914 34.64 406.047 35.76C408.234 36.8267 410.074 38.3467 411.567 40.32C413.114 42.2933 414.287 44.6933 415.087 47.52C415.887 50.3467 416.287 53.4667 416.287 56.88C416.287 60.72 415.754 64.16 414.687 67.2C413.62 70.1867 412.207 72.72 410.447 74.8C408.687 76.8267 406.66 78.4 404.367 79.52C402.074 80.5867 399.7 81.12 397.247 81.12C395.274 81.12 393.354 80.6933 391.487 79.84C389.62 78.9867 387.834 77.7867 386.127 76.24L386.447 83.6V97.2H374.767V35.2ZM394.607 71.44C397.327 71.44 399.594 70.2667 401.407 67.92C403.274 65.5733 404.207 61.9467 404.207 57.04C404.207 52.72 403.487 49.44 402.047 47.2C400.66 44.9067 398.42 43.76 395.327 43.76C393.78 43.76 392.287 44.16 390.847 44.96C389.46 45.7067 387.994 46.8533 386.447 48.4V68.08C387.887 69.3067 389.3 70.1867 390.687 70.72C392.074 71.2 393.38 71.44 394.607 71.44ZM425.451 35.2H435.051L435.851 43.12H436.171C437.825 40.1867 439.771 37.9467 442.011 36.4C444.251 34.8533 446.545 34.08 448.891 34.08C450.118 34.08 451.131 34.1867 451.931 34.4C452.731 34.56 453.478 34.7733 454.171 35.04L452.091 45.2C451.345 44.9333 450.598 44.7467 449.851 44.64C449.158 44.5333 448.358 44.48 447.451 44.48C445.691 44.48 443.851 45.1467 441.931 46.48C440.011 47.76 438.411 50.0267 437.131 53.28V80H425.451V35.2ZM478.935 81.12C475.788 81.12 472.855 80.5867 470.135 79.52C467.468 78.4533 465.122 76.9333 463.095 74.96C461.122 72.9333 459.548 70.48 458.375 67.6C457.255 64.6667 456.695 61.36 456.695 57.68C456.695 54.0533 457.282 50.8 458.455 47.92C459.628 44.9867 461.175 42.5067 463.095 40.48C465.068 38.4 467.308 36.8267 469.815 35.76C472.322 34.64 474.908 34.08 477.575 34.08C480.668 34.08 483.362 34.6133 485.655 35.68C488.002 36.7467 489.948 38.24 491.495 40.16C493.095 42.08 494.295 44.3467 495.095 46.96C495.895 49.5733 496.295 52.4267 496.295 55.52C496.295 56.5867 496.242 57.6267 496.135 58.64C496.028 59.6 495.895 60.3467 495.735 60.88H468.135C468.615 64.56 469.948 67.36 472.135 69.28C474.375 71.1467 477.175 72.08 480.535 72.08C482.402 72.08 484.135 71.8133 485.735 71.28C487.388 70.7467 489.015 69.9733 490.615 68.96L494.615 76.16C492.375 77.7067 489.895 78.9333 487.175 79.84C484.508 80.6933 481.762 81.12 478.935 81.12ZM486.215 53.12C486.215 50.08 485.522 47.68 484.135 45.92C482.748 44.1067 480.615 43.2 477.735 43.2C475.388 43.2 473.282 44.0533 471.415 45.76C469.548 47.4133 468.402 49.8667 467.975 53.12H486.215ZM517.979 81.12C514.939 81.12 511.899 80.5333 508.859 79.36C505.819 78.1867 503.179 76.6667 500.939 74.8L506.299 67.44C508.326 68.9867 510.299 70.1867 512.219 71.04C514.193 71.8933 516.219 72.32 518.299 72.32C520.539 72.32 522.166 71.8933 523.179 71.04C524.246 70.1333 524.779 68.9867 524.779 67.6C524.779 66.7467 524.513 66.0267 523.979 65.44C523.446 64.8 522.726 64.2133 521.819 63.68C520.966 63.1467 519.979 62.6667 518.859 62.24C517.739 61.8133 516.593 61.36 515.419 60.88C513.979 60.3467 512.539 59.7333 511.099 59.04C509.659 58.2933 508.353 57.4133 507.179 56.4C506.006 55.3333 505.046 54.1067 504.299 52.72C503.553 51.3333 503.179 49.7067 503.179 47.84C503.179 45.8133 503.579 43.9733 504.379 42.32C505.179 40.6133 506.299 39.1467 507.739 37.92C509.179 36.6933 510.913 35.76 512.939 35.12C515.019 34.4267 517.313 34.08 519.819 34.08C523.126 34.08 526.033 34.6667 528.539 35.84C531.046 36.96 533.233 38.2133 535.099 39.6L529.819 46.72C528.219 45.6 526.619 44.6933 525.019 44C523.473 43.2533 521.846 42.88 520.139 42.88C518.113 42.88 516.619 43.28 515.659 44.08C514.699 44.88 514.219 45.92 514.219 47.2C514.219 48 514.459 48.6933 514.939 49.28C515.473 49.8667 516.166 50.4 517.019 50.88C517.873 51.36 518.833 51.8133 519.899 52.24C521.019 52.6133 522.166 53.0133 523.339 53.44C524.833 54.0267 526.299 54.6667 527.739 55.36C529.233 56.0533 530.566 56.9067 531.739 57.92C532.966 58.9333 533.953 60.1867 534.699 61.68C535.446 63.12 535.819 64.88 535.819 66.96C535.819 68.9333 535.419 70.7733 534.619 72.48C533.873 74.1867 532.753 75.68 531.259 76.96C529.766 78.24 527.899 79.2533 525.659 80C523.473 80.7467 520.913 81.12 517.979 81.12ZM556.789 81.12C553.749 81.12 550.709 80.5333 547.669 79.36C544.629 78.1867 541.989 76.6667 539.749 74.8L545.109 67.44C547.135 68.9867 549.109 70.1867 551.029 71.04C553.002 71.8933 555.029 72.32 557.109 72.32C559.349 72.32 560.975 71.8933 561.989 71.04C563.055 70.1333 563.589 68.9867 563.589 67.6C563.589 66.7467 563.322 66.0267 562.789 65.44C562.255 64.8 561.535 64.2133 560.629 63.68C559.775 63.1467 558.789 62.6667 557.669 62.24C556.549 61.8133 555.402 61.36 554.229 60.88C552.789 60.3467 551.349 59.7333 549.909 59.04C548.469 58.2933 547.162 57.4133 545.989 56.4C544.815 55.3333 543.855 54.1067 543.109 52.72C542.362 51.3333 541.989 49.7067 541.989 47.84C541.989 45.8133 542.389 43.9733 543.189 42.32C543.989 40.6133 545.109 39.1467 546.549 37.92C547.989 36.6933 549.722 35.76 551.749 35.12C553.829 34.4267 556.122 34.08 558.629 34.08C561.935 34.08 564.842 34.6667 567.349 35.84C569.855 36.96 572.042 38.2133 573.909 39.6L568.629 46.72C567.029 45.6 565.429 44.6933 563.829 44C562.282 43.2533 560.655 42.88 558.949 42.88C556.922 42.88 555.429 43.28 554.469 44.08C553.509 44.88 553.029 45.92 553.029 47.2C553.029 48 553.269 48.6933 553.749 49.28C554.282 49.8667 554.975 50.4 555.829 50.88C556.682 51.36 557.642 51.8133 558.709 52.24C559.829 52.6133 560.975 53.0133 562.149 53.44C563.642 54.0267 565.109 54.6667 566.549 55.36C568.042 56.0533 569.375 56.9067 570.549 57.92C571.775 58.9333 572.762 60.1867 573.509 61.68C574.255 63.12 574.629 64.88 574.629 66.96C574.629 68.9333 574.229 70.7733 573.429 72.48C572.682 74.1867 571.562 75.68 570.069 76.96C568.575 78.24 566.709 79.2533 564.469 80C562.282 80.7467 559.722 81.12 556.789 81.12ZM582.798 35.2H594.478V80H582.798V35.2ZM588.718 28C586.691 28 585.011 27.4133 583.678 26.24C582.345 25.0133 581.678 23.4667 581.678 21.6C581.678 19.68 582.345 18.1333 583.678 16.96C585.011 15.7867 586.691 15.2 588.718 15.2C590.745 15.2 592.398 15.7867 593.678 16.96C595.011 18.1333 595.678 19.68 595.678 21.6C595.678 23.4667 595.011 25.0133 593.678 26.24C592.398 27.4133 590.745 28 588.718 28ZM625.015 81.12C622.188 81.12 619.468 80.5867 616.855 79.52C614.295 78.4533 612.028 76.9333 610.055 74.96C608.082 72.9333 606.482 70.48 605.255 67.6C604.082 64.6667 603.495 61.36 603.495 57.68C603.495 53.9467 604.082 50.6133 605.255 47.68C606.482 44.7467 608.082 42.2933 610.055 40.32C612.028 38.2933 614.295 36.7467 616.855 35.68C619.468 34.6133 622.188 34.08 625.015 34.08C627.788 34.08 630.482 34.6133 633.095 35.68C635.708 36.7467 638.002 38.2933 639.975 40.32C641.948 42.2933 643.522 44.7467 644.695 47.68C645.922 50.6133 646.535 53.9467 646.535 57.68C646.535 61.36 645.922 64.6667 644.695 67.6C643.522 70.48 641.948 72.9333 639.975 74.96C638.002 76.9333 635.708 78.4533 633.095 79.52C630.482 80.5867 627.788 81.12 625.015 81.12ZM625.015 71.52C628.055 71.52 630.402 70.2667 632.055 67.76C633.708 65.2533 634.535 61.8933 634.535 57.68C634.535 53.4133 633.708 50.0267 632.055 47.52C630.402 44.96 628.055 43.68 625.015 43.68C621.975 43.68 619.628 44.96 617.975 47.52C616.322 50.0267 615.495 53.4133 615.495 57.68C615.495 61.8933 616.322 65.2533 617.975 67.76C619.628 70.2667 621.975 71.52 625.015 71.52ZM655.573 35.2H665.173L665.973 41.12H666.293C668.266 39.2 670.426 37.5467 672.773 36.16C675.12 34.7733 677.813 34.08 680.853 34.08C685.706 34.08 689.226 35.68 691.413 38.88C693.6 42.0267 694.693 46.4267 694.693 52.08V80H682.933V53.52C682.933 50.0533 682.426 47.6267 681.413 46.24C680.453 44.8533 678.853 44.16 676.613 44.16C674.746 44.16 673.146 44.5867 671.813 45.44C670.48 46.2933 668.96 47.5467 667.253 49.2V80H655.573V35.2ZM740.788 98H729.188L735.428 80.24L718.068 35.2H729.908L737.028 56C737.721 58.0267 738.361 60.1067 738.948 62.24C739.535 64.32 740.148 66.4533 740.788 68.64H741.188C741.721 66.56 742.255 64.4533 742.788 62.32C743.321 60.1867 743.855 58.08 744.388 56L750.548 35.2H761.828L746.308 81.28L740.788 98ZM787.206 81.12C784.379 81.12 781.659 80.5867 779.046 79.52C776.486 78.4533 774.219 76.9333 772.246 74.96C770.272 72.9333 768.672 70.48 767.446 67.6C766.272 64.6667 765.686 61.36 765.686 57.68C765.686 53.9467 766.272 50.6133 767.446 47.68C768.672 44.7467 770.272 42.2933 772.246 40.32C774.219 38.2933 776.486 36.7467 779.046 35.68C781.659 34.6133 784.379 34.08 787.206 34.08C789.979 34.08 792.672 34.6133 795.286 35.68C797.899 36.7467 800.192 38.2933 802.166 40.32C804.139 42.2933 805.712 44.7467 806.886 47.68C808.112 50.6133 808.726 53.9467 808.726 57.68C808.726 61.36 808.112 64.6667 806.886 67.6C805.712 70.48 804.139 72.9333 802.166 74.96C800.192 76.9333 797.899 78.4533 795.286 79.52C792.672 80.5867 789.979 81.12 787.206 81.12ZM787.206 71.52C790.246 71.52 792.592 70.2667 794.246 67.76C795.899 65.2533 796.726 61.8933 796.726 57.68C796.726 53.4133 795.899 50.0267 794.246 47.52C792.592 44.96 790.246 43.68 787.206 43.68C784.166 43.68 781.819 44.96 780.166 47.52C778.512 50.0267 777.686 53.4133 777.686 57.68C777.686 61.8933 778.512 65.2533 780.166 67.76C781.819 70.2667 784.166 71.52 787.206 71.52ZM831.044 81.12C826.244 81.12 822.75 79.5467 820.564 76.4C818.377 73.2 817.284 68.8 817.284 63.2V35.2H829.044V61.68C829.044 65.2 829.524 67.6533 830.484 69.04C831.497 70.3733 833.097 71.04 835.284 71.04C837.15 71.04 838.75 70.6133 840.084 69.76C841.417 68.9067 842.857 67.4667 844.404 65.44V35.2H856.164V80H846.564L845.684 73.6H845.364C843.444 75.8933 841.337 77.7333 839.044 79.12C836.804 80.4533 834.137 81.12 831.044 81.12ZM2.16 115.2H13.92L18.8 137.36C19.2267 139.547 19.6 141.707 19.92 143.84C20.24 145.973 20.6133 148.16 21.04 150.4H21.36C21.7867 148.16 22.2133 145.973 22.64 143.84C23.0667 141.653 23.5733 139.493 24.16 137.36L29.52 115.2H40L45.6 137.36C46.1333 139.547 46.6133 141.707 47.04 143.84C47.4667 145.973 47.92 148.16 48.4 150.4H48.8C49.2267 148.16 49.6 145.973 49.92 143.84C50.24 141.707 50.6133 139.547 51.04 137.36L55.92 115.2H66.8L55.76 160H41.92L37.2 140.48C36.72 138.347 36.2667 136.24 35.84 134.16C35.4667 132.08 35.0667 129.84 34.64 127.44H34.24C33.8133 129.84 33.4133 132.107 33.04 134.24C32.6667 136.32 32.24 138.4 31.76 140.48L27.2 160H13.76L2.16 115.2ZM93.3025 161.12C90.4758 161.12 87.7558 160.587 85.1425 159.52C82.5825 158.453 80.3158 156.933 78.3425 154.96C76.3692 152.933 74.7692 150.48 73.5425 147.6C72.3692 144.667 71.7825 141.36 71.7825 137.68C71.7825 133.947 72.3692 130.613 73.5425 127.68C74.7692 124.747 76.3692 122.293 78.3425 120.32C80.3158 118.293 82.5825 116.747 85.1425 115.68C87.7558 114.613 90.4758 114.08 93.3025 114.08C96.0758 114.08 98.7692 114.613 101.382 115.68C103.996 116.747 106.289 118.293 108.262 120.32C110.236 122.293 111.809 124.747 112.982 127.68C114.209 130.613 114.822 133.947 114.822 137.68C114.822 141.36 114.209 144.667 112.982 147.6C111.809 150.48 110.236 152.933 108.262 154.96C106.289 156.933 103.996 158.453 101.382 159.52C98.7692 160.587 96.0758 161.12 93.3025 161.12ZM93.3025 151.52C96.3425 151.52 98.6892 150.267 100.342 147.76C101.996 145.253 102.822 141.893 102.822 137.68C102.822 133.413 101.996 130.027 100.342 127.52C98.6892 124.96 96.3425 123.68 93.3025 123.68C90.2625 123.68 87.9158 124.96 86.2625 127.52C84.6092 130.027 83.7825 133.413 83.7825 137.68C83.7825 141.893 84.6092 145.253 86.2625 147.76C87.9158 150.267 90.2625 151.52 93.3025 151.52ZM137.141 161.12C132.341 161.12 128.847 159.547 126.661 156.4C124.474 153.2 123.381 148.8 123.381 143.2V115.2H135.141V141.68C135.141 145.2 135.621 147.653 136.581 149.04C137.594 150.373 139.194 151.04 141.381 151.04C143.247 151.04 144.847 150.613 146.181 149.76C147.514 148.907 148.954 147.467 150.501 145.44V115.2H162.261V160H152.661L151.781 153.6H151.461C149.541 155.893 147.434 157.733 145.141 159.12C142.901 160.453 140.234 161.12 137.141 161.12ZM173.998 160V96.16H185.678V160H173.998ZM214.193 161.12C211.419 161.12 208.886 160.587 206.593 159.52C204.353 158.453 202.433 156.907 200.833 154.88C199.233 152.853 198.006 150.4 197.153 147.52C196.299 144.64 195.873 141.36 195.873 137.68C195.873 134 196.379 130.72 197.393 127.84C198.459 124.907 199.873 122.427 201.633 120.4C203.393 118.373 205.393 116.827 207.633 115.76C209.926 114.64 212.273 114.08 214.673 114.08C217.233 114.08 219.366 114.533 221.073 115.44C222.779 116.293 224.433 117.467 226.033 118.96L225.553 111.92V96.16H237.313V160H227.793L226.833 155.36H226.593C224.939 156.96 223.046 158.32 220.913 159.44C218.779 160.56 216.539 161.12 214.193 161.12ZM217.233 151.44C218.779 151.44 220.219 151.093 221.553 150.4C222.939 149.707 224.273 148.507 225.553 146.8V127.12C224.166 125.893 222.779 125.04 221.393 124.56C220.006 124.027 218.619 123.76 217.233 123.76C215.953 123.76 214.753 124.053 213.633 124.64C212.513 125.227 211.526 126.107 210.673 127.28C209.873 128.453 209.206 129.893 208.673 131.6C208.193 133.307 207.953 135.28 207.953 137.52C207.953 142.213 208.753 145.707 210.353 148C211.953 150.293 214.246 151.44 217.233 151.44ZM266.442 96.16H278.122V112.24L277.642 120.64C279.455 118.933 281.482 117.413 283.722 116.08C286.015 114.747 288.682 114.08 291.722 114.08C296.575 114.08 300.095 115.68 302.282 118.88C304.469 122.027 305.562 126.427 305.562 132.08V160H293.802V133.52C293.802 130.053 293.295 127.627 292.282 126.24C291.322 124.853 289.722 124.16 287.482 124.16C285.615 124.16 284.015 124.587 282.682 125.44C281.349 126.293 279.829 127.547 278.122 129.2V160H266.442V96.16ZM327.854 160.8C325.827 160.8 323.987 160.507 322.334 159.92C320.734 159.28 319.347 158.4 318.174 157.28C317.054 156.107 316.174 154.72 315.534 153.12C314.894 151.52 314.574 149.76 314.574 147.84C314.307 142.347 316.2 138.293 320.254 135.68C324.36 133.013 331.054 131.547 340.334 131.28C340.547 128.933 340.174 127.067 339.214 125.68C338.307 124.24 336.147 123.52 332.734 123.52C330.654 123.52 328.467 123.893 326.174 124.64C323.934 125.387 321.8 126.427 319.774 127.76L316.254 119.36C318.707 117.867 321.534 116.613 324.734 115.6C327.987 114.587 331.374 114.08 334.894 114.08C340.6 114.08 344.894 115.76 347.774 119.12C350.654 122.427 352.094 127.333 352.094 133.84V160H342.494L341.614 155.44H341.374C339.454 157.093 337.347 158.4 335.054 159.36C332.814 160.32 330.414 160.8 327.854 160.8ZM331.454 151.84C333.16 151.787 334.707 151.413 336.094 150.72C337.534 149.973 338.947 148.907 340.334 147.52V138.48C337.507 138.693 334.814 138.987 332.254 139.36C329.694 139.733 327.88 140.507 326.814 141.68C325.8 142.853 325.32 144.24 325.374 145.84C325.427 147.707 326.014 149.173 327.134 150.24C328.307 151.307 329.747 151.84 331.454 151.84ZM358.079 115.2H369.919L376.479 137.52C377.066 139.76 377.653 142.027 378.239 144.32C378.879 146.56 379.493 148.827 380.079 151.12H380.479C381.066 148.827 381.653 146.56 382.239 144.32C382.879 142.027 383.493 139.76 384.079 137.52L390.639 115.2H401.919L386.959 160H373.359L358.079 115.2ZM428.013 161.12C424.866 161.12 421.933 160.587 419.213 159.52C416.546 158.453 414.2 156.933 412.173 154.96C410.2 152.933 408.626 150.48 407.453 147.6C406.333 144.667 405.773 141.36 405.773 137.68C405.773 134.053 406.36 130.8 407.533 127.92C408.706 124.987 410.253 122.507 412.173 120.48C414.146 118.4 416.386 116.827 418.893 115.76C421.4 114.64 423.986 114.08 426.653 114.08C429.746 114.08 432.44 114.613 434.733 115.68C437.08 116.747 439.026 118.24 440.573 120.16C442.173 122.08 443.373 124.347 444.173 126.96C444.973 129.573 445.373 132.427 445.373 135.52C445.373 136.587 445.32 137.627 445.213 138.64C445.106 139.6 444.973 140.347 444.813 140.88H417.213C417.693 144.56 419.026 147.36 421.213 149.28C423.453 151.147 426.253 152.08 429.613 152.08C431.48 152.08 433.213 151.813 434.813 151.28C436.466 150.747 438.093 149.973 439.693 148.96L443.693 156.16C441.453 157.707 438.973 158.933 436.253 159.84C433.586 160.693 430.84 161.12 428.013 161.12ZM435.293 133.12C435.293 130.08 434.6 127.68 433.213 125.92C431.826 124.107 429.693 123.2 426.813 123.2C424.466 123.2 422.36 124.053 420.493 125.76C418.626 127.413 417.48 129.867 417.053 133.12H435.293Z" fill="white"/>
<path d="M198.449 47.3926V34.2613L202.239 31.2154V0.462891H196.81L178 16.2791L179.895 19.6935C183.823 19.2648 191.074 17.3771 193.297 16.5273V73.4446L179.895 77.3328V83.4923H202.239V50.4385L198.457 47.4001L198.449 47.3926Z" fill="white"/>
<path d="M226.07 77.3253L212.784 73.4822V0.462891H204.258V32.0201L200.468 35.0585V46.5878L204.258 49.6262V83.4848H226.07V77.3253Z" fill="white"/>
<path d="M235.564 8.7041C235.455 7.36426 234.58 6.59863 232.802 6.59863C231.08 6.59863 230.314 7.25488 230.287 8.18457C230.26 9.19629 231.189 9.77051 233.021 10.1533L234.662 10.5361C238.927 11.4385 240.814 13.5166 240.842 16.5518C240.814 20.4346 237.834 22.6221 232.83 22.6221C227.717 22.6221 224.408 20.3799 224.353 15.5127H229.33C229.412 17.3447 230.697 18.3291 232.748 18.3291C234.525 18.3291 235.482 17.5908 235.51 16.5518C235.482 15.5947 234.689 15.0479 232.474 14.5557L230.478 14.1182C227.006 13.3525 224.873 11.6299 224.873 8.56738C224.845 4.82129 228.154 2.30566 232.802 2.30566C237.56 2.30566 240.541 4.84863 240.568 8.7041H235.564ZM241.56 6.79004V2.5791H258.623V6.79004H252.662V22.376H247.521V6.79004H241.56Z" fill="white"/>
</svg>
