<svg width="1920" height="358" viewBox="0 0 1920 358" fill="none" xmlns="http://www.w3.org/2000/svg">
<path d="M133.734 384C110.401 384 88.401 379.833 67.7344 371.5C47.0677 363.167 29.0677 351 13.7344 335C-1.59895 319 -13.7656 299.167 -22.7656 275.5C-31.4323 251.833 -35.7656 224.5 -35.7656 193.5C-35.7656 163.167 -31.2656 136 -22.2656 112C-12.9323 88 -0.43229 67.6666 15.2344 51C30.901 34.3333 49.0677 21.6667 69.7344 13C90.7344 4.33332 112.901 -4.05312e-06 136.234 -4.05312e-06C159.901 -4.05312e-06 180.901 4.83333 199.234 14.5C217.568 23.8333 232.734 34.8333 244.734 47.5L205.734 94.5C196.401 85.5 186.234 78.1667 175.234 72.5C164.234 66.5 151.734 63.5 137.734 63.5C123.734 63.5 110.734 66.5 98.7344 72.5C86.7344 78.1667 76.401 86.5 67.7344 97.5C59.0677 108.5 52.2344 121.833 47.2344 137.5C42.2344 153.167 39.7344 171 39.7344 191C39.7344 211 41.901 229 46.2344 245C50.901 261 57.401 274.667 65.7344 286C74.401 297 84.5677 305.5 96.2344 311.5C108.234 317.167 121.568 320 136.234 320C152.234 320 166.401 316.667 178.734 310C191.401 303 202.734 294.167 212.734 283.5L251.734 329.5C236.401 347.5 218.901 361.167 199.234 370.5C179.568 379.5 157.734 384 133.734 384ZM271.348 7H498.348V68.5H345.348V154H475.348V216H345.348V315H503.848V377H271.348V7ZM538.965 7H614.465L721.965 204L758.965 284H761.465C759.465 264.667 757.298 243.5 754.965 220.5C752.965 197.5 751.965 175.5 751.965 154.5V7H821.965V377H746.965L639.965 179L602.465 99.5H599.965C601.632 119.5 603.465 140.667 605.465 163C607.798 185.333 608.965 207.167 608.965 228.5V377H538.965V7ZM946.977 68.5H842.977V7H1125.98V68.5H1020.98V377H946.977V68.5ZM1145.98 7H1372.98V68.5H1219.98V154H1349.98V216H1219.98V315H1378.48V377H1145.98V7ZM1487.59 178.5H1535.59C1559.59 178.5 1577.76 173.667 1590.09 164C1602.76 154 1609.09 139 1609.09 119C1609.09 99 1602.76 85.1666 1590.09 77.5C1577.76 69.5 1559.59 65.5 1535.59 65.5H1487.59V178.5ZM1615.09 377L1539.09 237H1487.59V377H1413.59V7H1542.59C1561.93 7 1580.09 8.83332 1597.09 12.5C1614.09 16.1666 1628.76 22.3333 1641.09 31C1653.76 39.6667 1663.59 51.1667 1670.59 65.5C1677.93 79.8333 1681.59 97.6666 1681.59 119C1681.59 147 1675.09 169.667 1662.09 187C1649.43 204.333 1632.43 217.167 1611.09 225.5L1697.59 377H1615.09ZM1872.91 2.99999V321.5H1937.41V377H1731.41V321.5H1804.41V118L1806.41 85.5L1745.41 141L1705.91 96L1813.91 2.99999H1872.91Z" fill="#ACC4D8" fill-opacity="0.4"/>
</svg>
