<svg width="20" height="20" viewBox="0 0 20 20" fill="none" xmlns="http://www.w3.org/2000/svg">
<g clip-path="url(#clip0_10297_540)">
<path d="M6.66671 12.5C6.66671 11.5796 5.92052 10.8334 5.00004 10.8334C4.07957 10.8334 3.33337 11.5796 3.33337 12.5V14.1667C3.33337 15.0872 4.07957 15.8334 5.00004 15.8334C5.92052 15.8334 6.66671 15.0872 6.66671 14.1667V12.5Z" stroke="#00427A" stroke-linecap="round" stroke-linejoin="round"/>
<path d="M16.6667 12.5C16.6667 11.5796 15.9205 10.8334 15 10.8334C14.0796 10.8334 13.3334 11.5796 13.3334 12.5V14.1667C13.3334 15.0872 14.0796 15.8334 15 15.8334C15.9205 15.8334 16.6667 15.0872 16.6667 14.1667V12.5Z" stroke="#00427A" stroke-linecap="round" stroke-linejoin="round"/>
<path d="M3.33337 12.5V10C3.33337 8.23193 4.03575 6.53624 5.286 5.286C6.53624 4.03575 8.23193 3.33337 10 3.33337C11.7682 3.33337 13.4638 4.03575 14.7141 5.286C15.9643 6.53624 16.6667 8.23193 16.6667 10V12.5" stroke="#00427A" stroke-linecap="round" stroke-linejoin="round"/>
<path d="M15 15.8334C15 16.4964 14.4732 17.1323 13.5355 17.6011C12.5979 18.07 11.3261 18.3334 10 18.3334" stroke="#00427A" stroke-linecap="round" stroke-linejoin="round"/>
</g>
<defs>
<clipPath id="clip0_10297_540">
<rect width="20" height="20" fill="white"/>
</clipPath>
</defs>
</svg>
