<svg width="300" height="27" viewBox="0 0 300 27" fill="none" xmlns="http://www.w3.org/2000/svg">
<path d="M29.3254 11.0574H24.9905V25.921H29.3254V11.0574Z" fill="white"/>
<path d="M29.3254 5.43774H24.9905V8.94014H29.3254V5.43774Z" fill="white"/>
<path d="M17.3684 5.43774H15.9402L10.8445 19.5765L5.78469 5.43774H4.33493H0V25.921H4.33493V12.5717L9.50239 25.921H12.2584L17.3684 12.5861V25.921H21.6962V5.43774H17.3684Z" fill="white"/>
<path d="M36.5168 13.634V11.0862H32.1819V25.9498H36.5168V17.3446C36.5168 17.3446 36.6532 14.0862 41.4977 14.4163V11.0575C41.4977 11.0575 37.7226 10.9355 36.5168 13.634Z" fill="white"/>
<path d="M50.1746 11.0862C43.8445 11.0862 43.6148 14.6962 43.6148 16.0096H47.1746C47.1746 16.0096 47.1244 13.6125 50.0526 13.6125C52.9809 13.6125 52.9019 15.3278 52.9019 15.5288C52.9019 15.7297 52.8517 17.0718 48.9689 17.4594C45.0861 17.8469 42.9402 18.9594 42.9402 21.9091C42.9402 24.8589 45.2368 25.9211 48.2153 25.9211C51.1938 25.9211 52.9091 24.1053 52.9091 24.1053V25.9211H56.5407V14.7178C56.5407 14.7178 56.512 11.0862 50.1818 11.0862H50.1746ZM52.7153 19.9283C52.7153 20.6819 52.5359 21.4426 52.1411 22.0814C51.689 22.8135 50.9139 23.6388 49.5287 23.8613C48.3947 24.0407 47.7488 23.646 47.3828 23.158C46.7727 22.3469 46.8804 21.1843 47.5837 20.4666C48.2943 19.7417 49.7512 18.9809 52.7225 18.9163V19.9211L52.7153 19.9283Z" fill="white"/>
<path d="M66.689 23.2082C64.2775 23.2082 62.8995 21.8302 62.8995 19.591H73.701C73.701 19.591 73.5718 11.0862 66.3876 11.0862C59.2034 11.0862 59.2034 18.2991 59.2034 19.4187C59.2034 20.5383 60.1938 26.3876 66.4522 26.3876C72.7105 26.3876 73.701 21.1412 73.701 21.1412H69.567C69.567 21.1412 69.0933 23.2082 66.6818 23.2082H66.689ZM66.2584 13.9139C69.6603 13.9139 69.6603 17.4594 69.6603 17.4594H62.8637C62.8637 17.4594 62.8637 13.9139 66.2656 13.9139H66.2584Z" fill="white"/>
<path d="M140.333 23.2082C137.921 23.2082 136.543 21.8302 136.543 19.591H147.345C147.345 19.591 147.215 11.0862 140.031 11.0862C132.847 11.0862 132.847 18.2991 132.847 19.4187C132.847 20.5383 133.837 26.3876 140.096 26.3876C146.354 26.3876 147.345 21.1412 147.345 21.1412H143.211C143.211 21.1412 142.737 23.2082 140.325 23.2082H140.333ZM139.902 13.9139C143.304 13.9139 143.304 17.4594 143.304 17.4594H136.507C136.507 17.4594 136.507 13.9139 139.909 13.9139H139.902Z" fill="white"/>
<path d="M93.8397 5.48071H90.0933L82.177 25.9281H86.311L88.0765 20.9759H95.5191L97.1985 25.9281H101.849L93.8469 5.48071H93.8397ZM89.0957 18.1195L91.8158 10.5549L94.5 18.1123L89.0957 18.1266V18.1195Z" fill="white"/>
<path d="M102.474 20.9617H106.263C106.263 20.9617 106.263 23.8613 109.392 23.8613C112.521 23.8613 112.163 21.8876 112.163 21.5215C112.163 21.1555 111.108 20.201 109.098 19.8062C107.088 19.4115 102.84 18.4211 102.84 15.3565C102.84 12.2919 105.28 11.0718 109.069 11.0718C112.859 11.0718 115.694 13.4474 115.694 15.1914H111.474C111.474 15.1914 111.208 13.4474 109.084 13.4474C106.959 13.4474 106.895 14.6675 106.895 15.1627C106.895 15.6579 107.225 16.8134 112.299 17.4665C117.373 18.1196 117.208 25.9211 109.923 25.9211C102.639 25.9211 102.474 20.9617 102.474 20.9617Z" fill="white"/>
<path d="M117.61 20.9617H121.4C121.4 20.9617 121.4 23.8613 124.529 23.8613C127.658 23.8613 127.299 21.8876 127.299 21.5215C127.299 21.1555 126.244 20.201 124.235 19.8062C122.225 19.4115 117.976 18.4211 117.976 15.3565C117.976 12.2919 120.416 11.0718 124.206 11.0718C127.995 11.0718 130.83 13.4474 130.83 15.1914H126.61C126.61 15.1914 126.345 13.4474 124.22 13.4474C122.096 13.4474 122.031 14.6675 122.031 15.1627C122.031 15.6579 122.361 16.8134 127.435 17.4665C132.51 18.1196 132.345 25.9211 125.06 25.9211C117.775 25.9211 117.61 20.9617 117.61 20.9617Z" fill="white"/>
<path d="M157.816 14.2152V11.3659H155.017V6.77979H150.682V11.3587H148.256V14.208H150.682V21.6434C150.682 21.6434 150.179 25.9209 153.452 25.9209H157.816V22.885C157.816 22.885 155.017 23.4807 155.017 21.6506V14.2152H157.816Z" fill="white"/>
<path d="M167.742 16.0957C167.742 21.2345 171.56 26.3876 178.084 26.3876C184.608 26.3876 184.335 24.4211 184.335 24.4211L183.158 21.6436C183.158 21.6436 171.84 25.3972 171.84 16.3685C171.84 7.33977 178.852 8.10771 182.046 8.80388L183.431 6.09814C183.431 6.09814 168.502 1.37566 167.742 16.0957Z" fill="white"/>
<path d="M206.411 5.38062V25.9213H210.581V9.50741L218.749 25.9213H224.541V5.38062H220.608V21.7443L211.995 5.38062H206.411Z" fill="white"/>
<path d="M244.636 5.38062H228.811V8.91889H234.158V25.9213H238.5V8.91889H242.806L244.636 5.38062Z" fill="white"/>
<path d="M252.287 17.1653H259.593V13.4763H253.507L252.287 14.9548V8.86865H259.191L260.663 5.43085H252.287V5.38062H248.081V5.43085V8.86865V22.4835V23.8112V25.9213H259.191L260.663 22.4835H252.287V17.1653Z" fill="white"/>
<path d="M193.012 17.1653H200.318V13.4763H194.232L193.012 14.9548V8.86865H199.916L201.387 5.43085H193.012V5.38062H188.806V5.43085V8.86865V22.4835V23.8112V25.9213H199.916L201.387 22.4835H193.012V17.1653Z" fill="white"/>
<path d="M278.045 22.4832L274.651 17.0645C276.71 16.476 279.143 15.0047 279.143 11.3731C279.143 5.06451 273.079 5.3803 273.079 5.3803H265.615V25.921H269.82V17.4592H270.631L275.842 25.921H279.588L281.34 22.4832H278.038H278.045ZM269.82 14.5956V8.86834H272.67C272.67 8.86834 275.684 8.78221 275.684 11.4162C275.684 14.0502 273.323 14.5884 272.756 14.5884H269.828L269.82 14.5956Z" fill="white"/>
<path d="M286.651 4.84453L291.732 0.287109H293.447V8.38998C293.447 8.38998 292.048 8.54788 292.048 10.945C292.048 13.3421 293.447 13.4354 293.447 13.4354V21.8972H287.024V20.8637L291.057 19.1555V4.23448L289.672 4.84453H286.651Z" fill="white"/>
<path d="M294.208 0.287109H296.289V19.1555L299.871 20.8637V21.8972H294.208V13.012C294.208 13.012 292.794 12.6962 292.794 10.8876C292.794 9.07898 293.454 8.92826 294.208 8.59094V0.287109Z" fill="white"/>
</svg>
