<svg width="770" height="178" viewBox="0 0 770 178" fill="none" xmlns="http://www.w3.org/2000/svg">
<path d="M19.04 30.64H2.4V20.8H47.68V30.64H30.88V80H19.04V30.64ZM55.52 16.16H67.2V32.24L66.72 40.64C68.5333 38.9333 70.56 37.4133 72.8 36.08C75.0933 34.7467 77.76 34.08 80.8 34.08C85.6533 34.08 89.1733 35.68 91.36 38.88C93.5467 42.0267 94.64 46.4267 94.64 52.08V80H82.88V53.52C82.88 50.0533 82.3733 47.6267 81.36 46.24C80.4 44.8533 78.8 44.16 76.56 44.16C74.6933 44.16 73.0933 44.5867 71.76 45.44C70.4267 46.2933 68.9067 47.5467 67.2 49.2V80H55.52V16.16ZM125.332 81.12C122.185 81.12 119.252 80.5867 116.532 79.52C113.865 78.4533 111.519 76.9333 109.492 74.96C107.519 72.9333 105.945 70.48 104.772 67.6C103.652 64.6667 103.092 61.36 103.092 57.68C103.092 54.0533 103.679 50.8 104.852 47.92C106.025 44.9867 107.572 42.5067 109.492 40.48C111.465 38.4 113.705 36.8267 116.212 35.76C118.719 34.64 121.305 34.08 123.972 34.08C127.065 34.08 129.759 34.6133 132.052 35.68C134.399 36.7467 136.345 38.24 137.892 40.16C139.492 42.08 140.692 44.3467 141.492 46.96C142.292 49.5733 142.692 52.4267 142.692 55.52C142.692 56.5867 142.639 57.6267 142.532 58.64C142.425 59.6 142.292 60.3467 142.132 60.88H114.532C115.012 64.56 116.345 67.36 118.532 69.28C120.772 71.1467 123.572 72.08 126.932 72.08C128.799 72.08 130.532 71.8133 132.132 71.28C133.785 70.7467 135.412 69.9733 137.012 68.96L141.012 76.16C138.772 77.7067 136.292 78.9333 133.572 79.84C130.905 80.6933 128.159 81.12 125.332 81.12ZM132.612 53.12C132.612 50.08 131.919 47.68 130.532 45.92C129.145 44.1067 127.012 43.2 124.132 43.2C121.785 43.2 119.679 44.0533 117.812 45.76C115.945 47.4133 114.799 49.8667 114.372 53.12H132.612ZM273.811 20.8H293.411C296.451 20.8 299.278 21.04 301.891 21.52C304.505 22 306.771 22.8 308.691 23.92C310.611 25.04 312.105 26.5333 313.171 28.4C314.291 30.2667 314.851 32.5867 314.851 35.36C314.851 36.7467 314.665 38.1067 314.291 39.44C313.918 40.7733 313.385 42.0267 312.691 43.2C311.998 44.32 311.145 45.3333 310.131 46.24C309.171 47.0933 308.051 47.7333 306.771 48.16V48.56C309.971 49.3067 312.611 50.8267 314.691 53.12C316.825 55.4133 317.891 58.56 317.891 62.56C317.891 65.5467 317.305 68.1333 316.131 70.32C314.958 72.5067 313.331 74.32 311.251 75.76C309.225 77.2 306.798 78.2667 303.971 78.96C301.198 79.6533 298.185 80 294.931 80H273.811V20.8ZM292.531 44.88C296.318 44.88 299.065 44.1867 300.771 42.8C302.478 41.4133 303.331 39.52 303.331 37.12C303.331 34.5067 302.451 32.64 300.691 31.52C298.931 30.4 296.265 29.84 292.691 29.84H285.651V44.88H292.531ZM293.891 70.88C297.945 70.88 301.038 70.16 303.171 68.72C305.305 67.2267 306.371 64.9333 306.371 61.84C306.371 58.96 305.305 56.88 303.171 55.6C301.091 54.32 297.998 53.68 293.891 53.68H285.651V70.88H293.891ZM339.784 81.12C334.984 81.12 331.491 79.5467 329.304 76.4C327.118 73.2 326.024 68.8 326.024 63.2V35.2H337.784V61.68C337.784 65.2 338.264 67.6533 339.224 69.04C340.238 70.3733 341.838 71.04 344.024 71.04C345.891 71.04 347.491 70.6133 348.824 69.76C350.158 68.9067 351.598 67.4667 353.144 65.44V35.2H364.904V80H355.304L354.424 73.6H354.104C352.184 75.8933 350.078 77.7333 347.784 79.12C345.544 80.4533 342.878 81.12 339.784 81.12ZM376.642 35.2H388.322V80H376.642V35.2ZM382.562 28C380.535 28 378.855 27.4133 377.522 26.24C376.189 25.0133 375.522 23.4667 375.522 21.6C375.522 19.68 376.189 18.1333 377.522 16.96C378.855 15.7867 380.535 15.2 382.562 15.2C384.589 15.2 386.242 15.7867 387.522 16.96C388.855 18.1333 389.522 19.68 389.522 21.6C389.522 23.4667 388.855 25.0133 387.522 26.24C386.242 27.4133 384.589 28 382.562 28ZM400.139 80V16.16H411.819V80H400.139ZM440.333 81.12C437.56 81.12 435.026 80.5867 432.733 79.52C430.493 78.4533 428.573 76.9067 426.973 74.88C425.373 72.8533 424.146 70.4 423.293 67.52C422.44 64.64 422.013 61.36 422.013 57.68C422.013 54 422.52 50.72 423.533 47.84C424.6 44.9067 426.013 42.4267 427.773 40.4C429.533 38.3733 431.533 36.8267 433.773 35.76C436.066 34.64 438.413 34.08 440.813 34.08C443.373 34.08 445.506 34.5333 447.213 35.44C448.92 36.2933 450.573 37.4667 452.173 38.96L451.693 31.92V16.16H463.453V80H453.933L452.973 75.36H452.733C451.08 76.96 449.186 78.32 447.053 79.44C444.92 80.56 442.68 81.12 440.333 81.12ZM443.373 71.44C444.92 71.44 446.36 71.0933 447.693 70.4C449.08 69.7067 450.413 68.5067 451.693 66.8V47.12C450.306 45.8933 448.92 45.04 447.533 44.56C446.146 44.0267 444.76 43.76 443.373 43.76C442.093 43.76 440.893 44.0533 439.773 44.64C438.653 45.2267 437.666 46.1067 436.813 47.28C436.013 48.4533 435.346 49.8933 434.813 51.6C434.333 53.3067 434.093 55.28 434.093 57.52C434.093 62.2133 434.893 65.7067 436.493 68C438.093 70.2933 440.386 71.44 443.373 71.44ZM475.258 35.2H486.938V80H475.258V35.2ZM481.178 28C479.151 28 477.471 27.4133 476.138 26.24C474.804 25.0133 474.138 23.4667 474.138 21.6C474.138 19.68 474.804 18.1333 476.138 16.96C477.471 15.7867 479.151 15.2 481.178 15.2C483.204 15.2 484.858 15.7867 486.138 16.96C487.471 18.1333 488.138 19.68 488.138 21.6C488.138 23.4667 487.471 25.0133 486.138 26.24C484.858 27.4133 483.204 28 481.178 28ZM498.754 35.2H508.354L509.154 41.12H509.474C511.448 39.2 513.608 37.5467 515.954 36.16C518.301 34.7733 520.994 34.08 524.034 34.08C528.888 34.08 532.408 35.68 534.594 38.88C536.781 42.0267 537.874 46.4267 537.874 52.08V80H526.114V53.52C526.114 50.0533 525.608 47.6267 524.594 46.24C523.634 44.8533 522.034 44.16 519.794 44.16C517.928 44.16 516.328 44.5867 514.994 45.44C513.661 46.2933 512.141 47.5467 510.434 49.2V80H498.754V35.2ZM564.964 99.44C562.298 99.44 559.818 99.2 557.524 98.72C555.284 98.2933 553.311 97.6 551.604 96.64C549.951 95.68 548.644 94.48 547.684 93.04C546.724 91.6 546.244 89.8933 546.244 87.92C546.244 86.0533 546.804 84.32 547.924 82.72C549.044 81.1733 550.618 79.8133 552.644 78.64V78.24C551.471 77.4933 550.484 76.5333 549.684 75.36C548.938 74.1333 548.564 72.5867 548.564 70.72C548.564 69.0133 549.044 67.44 550.004 66C551.018 64.5067 552.191 63.28 553.524 62.32V62C551.978 60.88 550.591 59.3067 549.364 57.28C548.191 55.2533 547.604 52.9333 547.604 50.32C547.604 47.7067 548.084 45.3867 549.044 43.36C550.058 41.3333 551.391 39.6267 553.044 38.24C554.751 36.8533 556.671 35.8133 558.804 35.12C560.991 34.4267 563.284 34.08 565.684 34.08C566.911 34.08 568.111 34.1867 569.284 34.4C570.458 34.6133 571.498 34.88 572.404 35.2H588.564V43.84H580.884C581.471 44.5867 581.951 45.5733 582.324 46.8C582.751 47.9733 582.964 49.2533 582.964 50.64C582.964 53.1467 582.511 55.36 581.604 57.28C580.698 59.1467 579.471 60.72 577.924 62C576.378 63.28 574.538 64.24 572.404 64.88C570.324 65.52 568.084 65.84 565.684 65.84C564.778 65.84 563.818 65.76 562.804 65.6C561.844 65.3867 560.884 65.12 559.924 64.8C559.284 65.3333 558.804 65.8933 558.484 66.48C558.164 67.0133 558.004 67.7333 558.004 68.64C558.004 69.8667 558.511 70.8 559.524 71.44C560.538 72.0267 562.378 72.32 565.044 72.32H572.644C578.084 72.32 582.218 73.2 585.044 74.96C587.871 76.72 589.284 79.5733 589.284 83.52C589.284 85.76 588.724 87.84 587.604 89.76C586.484 91.7333 584.858 93.44 582.724 94.88C580.644 96.32 578.084 97.44 575.044 98.24C572.058 99.04 568.698 99.44 564.964 99.44ZM565.684 58.56C567.658 58.56 569.311 57.8667 570.644 56.48C571.978 55.04 572.644 52.9867 572.644 50.32C572.644 47.6533 571.978 45.6267 570.644 44.24C569.364 42.8 567.711 42.08 565.684 42.08C563.658 42.08 561.978 42.8 560.644 44.24C559.311 45.6267 558.644 47.6533 558.644 50.32C558.644 52.9867 559.311 55.04 560.644 56.48C562.031 57.8667 563.711 58.56 565.684 58.56ZM566.724 92C570.084 92 572.804 91.36 574.884 90.08C577.018 88.8 578.084 87.28 578.084 85.52C578.084 83.92 577.444 82.8533 576.164 82.32C574.884 81.7867 573.044 81.52 570.644 81.52H565.204C563.818 81.52 562.618 81.4667 561.604 81.36C560.644 81.2533 559.764 81.0933 558.964 80.88C556.991 82.48 556.004 84.2133 556.004 86.08C556.004 87.9467 556.964 89.3867 558.884 90.4C560.804 91.4667 563.418 92 566.724 92ZM630.904 98H619.304L625.544 80.24L608.184 35.2H620.024L627.144 56C627.837 58.0267 628.477 60.1067 629.064 62.24C629.65 64.32 630.264 66.4533 630.904 68.64H631.304C631.837 66.56 632.37 64.4533 632.904 62.32C633.437 60.1867 633.97 58.08 634.504 56L640.664 35.2H651.944L636.424 81.28L630.904 98ZM677.321 81.12C674.495 81.12 671.775 80.5867 669.161 79.52C666.601 78.4533 664.335 76.9333 662.361 74.96C660.388 72.9333 658.788 70.48 657.561 67.6C656.388 64.6667 655.801 61.36 655.801 57.68C655.801 53.9467 656.388 50.6133 657.561 47.68C658.788 44.7467 660.388 42.2933 662.361 40.32C664.335 38.2933 666.601 36.7467 669.161 35.68C671.775 34.6133 674.495 34.08 677.321 34.08C680.095 34.08 682.788 34.6133 685.401 35.68C688.015 36.7467 690.308 38.2933 692.281 40.32C694.255 42.2933 695.828 44.7467 697.001 47.68C698.228 50.6133 698.841 53.9467 698.841 57.68C698.841 61.36 698.228 64.6667 697.001 67.6C695.828 70.48 694.255 72.9333 692.281 74.96C690.308 76.9333 688.015 78.4533 685.401 79.52C682.788 80.5867 680.095 81.12 677.321 81.12ZM677.321 71.52C680.361 71.52 682.708 70.2667 684.361 67.76C686.015 65.2533 686.841 61.8933 686.841 57.68C686.841 53.4133 686.015 50.0267 684.361 47.52C682.708 44.96 680.361 43.68 677.321 43.68C674.281 43.68 671.935 44.96 670.281 47.52C668.628 50.0267 667.801 53.4133 667.801 57.68C667.801 61.8933 668.628 65.2533 670.281 67.76C671.935 70.2667 674.281 71.52 677.321 71.52ZM721.159 81.12C716.359 81.12 712.866 79.5467 710.679 76.4C708.493 73.2 707.399 68.8 707.399 63.2V35.2H719.159V61.68C719.159 65.2 719.639 67.6533 720.599 69.04C721.613 70.3733 723.213 71.04 725.399 71.04C727.266 71.04 728.866 70.6133 730.199 69.76C731.533 68.9067 732.973 67.4667 734.519 65.44V35.2H746.279V80H736.679L735.799 73.6H735.479C733.559 75.8933 731.453 77.7333 729.159 79.12C726.919 80.4533 724.253 81.12 721.159 81.12ZM2.16 115.2H13.92L18.8 137.36C19.2267 139.547 19.6 141.707 19.92 143.84C20.24 145.973 20.6133 148.16 21.04 150.4H21.36C21.7867 148.16 22.2133 145.973 22.64 143.84C23.0667 141.653 23.5733 139.493 24.16 137.36L29.52 115.2H40L45.6 137.36C46.1333 139.547 46.6133 141.707 47.04 143.84C47.4667 145.973 47.92 148.16 48.4 150.4H48.8C49.2267 148.16 49.6 145.973 49.92 143.84C50.24 141.707 50.6133 139.547 51.04 137.36L55.92 115.2H66.8L55.76 160H41.92L37.2 140.48C36.72 138.347 36.2667 136.24 35.84 134.16C35.4667 132.08 35.0667 129.84 34.64 127.44H34.24C33.8133 129.84 33.4133 132.107 33.04 134.24C32.6667 136.32 32.24 138.4 31.76 140.48L27.2 160H13.76L2.16 115.2ZM93.3025 161.12C90.4758 161.12 87.7558 160.587 85.1425 159.52C82.5825 158.453 80.3158 156.933 78.3425 154.96C76.3692 152.933 74.7692 150.48 73.5425 147.6C72.3692 144.667 71.7825 141.36 71.7825 137.68C71.7825 133.947 72.3692 130.613 73.5425 127.68C74.7692 124.747 76.3692 122.293 78.3425 120.32C80.3158 118.293 82.5825 116.747 85.1425 115.68C87.7558 114.613 90.4758 114.08 93.3025 114.08C96.0758 114.08 98.7692 114.613 101.382 115.68C103.996 116.747 106.289 118.293 108.262 120.32C110.236 122.293 111.809 124.747 112.982 127.68C114.209 130.613 114.822 133.947 114.822 137.68C114.822 141.36 114.209 144.667 112.982 147.6C111.809 150.48 110.236 152.933 108.262 154.96C106.289 156.933 103.996 158.453 101.382 159.52C98.7692 160.587 96.0758 161.12 93.3025 161.12ZM93.3025 151.52C96.3425 151.52 98.6892 150.267 100.342 147.76C101.996 145.253 102.822 141.893 102.822 137.68C102.822 133.413 101.996 130.027 100.342 127.52C98.6892 124.96 96.3425 123.68 93.3025 123.68C90.2625 123.68 87.9158 124.96 86.2625 127.52C84.6092 130.027 83.7825 133.413 83.7825 137.68C83.7825 141.893 84.6092 145.253 86.2625 147.76C87.9158 150.267 90.2625 151.52 93.3025 151.52ZM137.141 161.12C132.341 161.12 128.847 159.547 126.661 156.4C124.474 153.2 123.381 148.8 123.381 143.2V115.2H135.141V141.68C135.141 145.2 135.621 147.653 136.581 149.04C137.594 150.373 139.194 151.04 141.381 151.04C143.247 151.04 144.847 150.613 146.181 149.76C147.514 148.907 148.954 147.467 150.501 145.44V115.2H162.261V160H152.661L151.781 153.6H151.461C149.541 155.893 147.434 157.733 145.141 159.12C142.901 160.453 140.234 161.12 137.141 161.12ZM173.998 160V96.16H185.678V160H173.998ZM214.193 161.12C211.419 161.12 208.886 160.587 206.593 159.52C204.353 158.453 202.433 156.907 200.833 154.88C199.233 152.853 198.006 150.4 197.153 147.52C196.299 144.64 195.873 141.36 195.873 137.68C195.873 134 196.379 130.72 197.393 127.84C198.459 124.907 199.873 122.427 201.633 120.4C203.393 118.373 205.393 116.827 207.633 115.76C209.926 114.64 212.273 114.08 214.673 114.08C217.233 114.08 219.366 114.533 221.073 115.44C222.779 116.293 224.433 117.467 226.033 118.96L225.553 111.92V96.16H237.313V160H227.793L226.833 155.36H226.593C224.939 156.96 223.046 158.32 220.913 159.44C218.779 160.56 216.539 161.12 214.193 161.12ZM217.233 151.44C218.779 151.44 220.219 151.093 221.553 150.4C222.939 149.707 224.273 148.507 225.553 146.8V127.12C224.166 125.893 222.779 125.04 221.393 124.56C220.006 124.027 218.619 123.76 217.233 123.76C215.953 123.76 214.753 124.053 213.633 124.64C212.513 125.227 211.526 126.107 210.673 127.28C209.873 128.453 209.206 129.893 208.673 131.6C208.193 133.307 207.953 135.28 207.953 137.52C207.953 142.213 208.753 145.707 210.353 148C211.953 150.293 214.246 151.44 217.233 151.44ZM266.442 115.2H276.042L276.842 119.84H277.162C279.029 118.24 281.082 116.88 283.322 115.76C285.615 114.64 287.962 114.08 290.362 114.08C293.135 114.08 295.589 114.64 297.722 115.76C299.909 116.827 301.749 118.347 303.242 120.32C304.789 122.293 305.962 124.693 306.762 127.52C307.562 130.347 307.962 133.467 307.962 136.88C307.962 140.72 307.429 144.16 306.362 147.2C305.295 150.187 303.882 152.72 302.122 154.8C300.362 156.827 298.335 158.4 296.042 159.52C293.749 160.587 291.375 161.12 288.922 161.12C286.949 161.12 285.029 160.693 283.162 159.84C281.295 158.987 279.509 157.787 277.802 156.24L278.122 163.6V177.2H266.442V115.2ZM286.282 151.44C289.002 151.44 291.269 150.267 293.082 147.92C294.949 145.573 295.882 141.947 295.882 137.04C295.882 132.72 295.162 129.44 293.722 127.2C292.335 124.907 290.095 123.76 287.002 123.76C285.455 123.76 283.962 124.16 282.522 124.96C281.135 125.707 279.669 126.853 278.122 128.4V148.08C279.562 149.307 280.975 150.187 282.362 150.72C283.749 151.2 285.055 151.44 286.282 151.44ZM317.126 115.2H326.726L327.526 123.12H327.846C329.5 120.187 331.446 117.947 333.686 116.4C335.926 114.853 338.22 114.08 340.566 114.08C341.793 114.08 342.806 114.187 343.606 114.4C344.406 114.56 345.153 114.773 345.846 115.04L343.766 125.2C343.02 124.933 342.273 124.747 341.526 124.64C340.833 124.533 340.033 124.48 339.126 124.48C337.366 124.48 335.526 125.147 333.606 126.48C331.686 127.76 330.086 130.027 328.806 133.28V160H317.126V115.2ZM370.61 161.12C367.463 161.12 364.53 160.587 361.81 159.52C359.143 158.453 356.797 156.933 354.77 154.96C352.797 152.933 351.223 150.48 350.05 147.6C348.93 144.667 348.37 141.36 348.37 137.68C348.37 134.053 348.957 130.8 350.13 127.92C351.303 124.987 352.85 122.507 354.77 120.48C356.743 118.4 358.983 116.827 361.49 115.76C363.997 114.64 366.583 114.08 369.25 114.08C372.343 114.08 375.037 114.613 377.33 115.68C379.677 116.747 381.623 118.24 383.17 120.16C384.77 122.08 385.97 124.347 386.77 126.96C387.57 129.573 387.97 132.427 387.97 135.52C387.97 136.587 387.917 137.627 387.81 138.64C387.703 139.6 387.57 140.347 387.41 140.88H359.81C360.29 144.56 361.623 147.36 363.81 149.28C366.05 151.147 368.85 152.08 372.21 152.08C374.077 152.08 375.81 151.813 377.41 151.28C379.063 150.747 380.69 149.973 382.29 148.96L386.29 156.16C384.05 157.707 381.57 158.933 378.85 159.84C376.183 160.693 373.437 161.12 370.61 161.12ZM377.89 133.12C377.89 130.08 377.197 127.68 375.81 125.92C374.423 124.107 372.29 123.2 369.41 123.2C367.063 123.2 364.957 124.053 363.09 125.76C361.223 127.413 360.077 129.867 359.65 133.12H377.89ZM420.774 105.28C420.028 105.013 419.228 104.8 418.374 104.64C417.574 104.427 416.801 104.32 416.054 104.32C414.294 104.32 412.934 104.88 411.974 106C411.068 107.067 410.614 108.853 410.614 111.36V115.2H419.014V124.48H410.614V160H398.854V124.48H392.854V115.76L398.854 115.28V111.6C398.854 109.253 399.121 107.067 399.654 105.04C400.241 103.013 401.148 101.28 402.374 99.84C403.654 98.3467 405.281 97.1733 407.254 96.32C409.228 95.4667 411.628 95.04 414.454 95.04C416.161 95.04 417.734 95.2 419.174 95.52C420.668 95.84 421.921 96.2133 422.934 96.64L420.774 105.28ZM445.26 161.12C442.113 161.12 439.18 160.587 436.46 159.52C433.793 158.453 431.447 156.933 429.42 154.96C427.447 152.933 425.873 150.48 424.7 147.6C423.58 144.667 423.02 141.36 423.02 137.68C423.02 134.053 423.607 130.8 424.78 127.92C425.953 124.987 427.5 122.507 429.42 120.48C431.393 118.4 433.633 116.827 436.14 115.76C438.647 114.64 441.233 114.08 443.9 114.08C446.993 114.08 449.687 114.613 451.98 115.68C454.327 116.747 456.273 118.24 457.82 120.16C459.42 122.08 460.62 124.347 461.42 126.96C462.22 129.573 462.62 132.427 462.62 135.52C462.62 136.587 462.567 137.627 462.46 138.64C462.353 139.6 462.22 140.347 462.06 140.88H434.46C434.94 144.56 436.273 147.36 438.46 149.28C440.7 151.147 443.5 152.08 446.86 152.08C448.727 152.08 450.46 151.813 452.06 151.28C453.713 150.747 455.34 149.973 456.94 148.96L460.94 156.16C458.7 157.707 456.22 158.933 453.5 159.84C450.833 160.693 448.087 161.12 445.26 161.12ZM452.54 133.12C452.54 130.08 451.847 127.68 450.46 125.92C449.073 124.107 446.94 123.2 444.06 123.2C441.713 123.2 439.607 124.053 437.74 125.76C435.873 127.413 434.727 129.867 434.3 133.12H452.54ZM471.504 115.2H481.104L481.904 123.12H482.224C483.878 120.187 485.824 117.947 488.064 116.4C490.304 114.853 492.598 114.08 494.944 114.08C496.171 114.08 497.184 114.187 497.984 114.4C498.784 114.56 499.531 114.773 500.224 115.04L498.144 125.2C497.398 124.933 496.651 124.747 495.904 124.64C495.211 124.533 494.411 124.48 493.504 124.48C491.744 124.48 489.904 125.147 487.984 126.48C486.064 127.76 484.464 130.027 483.184 133.28V160H471.504V115.2Z" fill="white"/>
<path d="M198.449 47.3926V34.2613L202.239 31.2154V0.462891H196.81L178 16.2791L179.895 19.6935C183.823 19.2648 191.074 17.3771 193.297 16.5273V73.4446L179.895 77.3328V83.4923H202.239V50.4385L198.457 47.4001L198.449 47.3926Z" fill="white"/>
<path d="M226.07 77.3253L212.784 73.4822V0.462891H204.258V32.0201L200.468 35.0585V46.5878L204.258 49.6262V83.4848H226.07V77.3253Z" fill="white"/>
<path d="M235.564 8.7041C235.455 7.36426 234.58 6.59863 232.802 6.59863C231.08 6.59863 230.314 7.25488 230.287 8.18457C230.26 9.19629 231.189 9.77051 233.021 10.1533L234.662 10.5361C238.927 11.4385 240.814 13.5166 240.842 16.5518C240.814 20.4346 237.834 22.6221 232.83 22.6221C227.717 22.6221 224.408 20.3799 224.353 15.5127H229.33C229.412 17.3447 230.697 18.3291 232.748 18.3291C234.525 18.3291 235.482 17.5908 235.51 16.5518C235.482 15.5947 234.689 15.0479 232.474 14.5557L230.478 14.1182C227.006 13.3525 224.873 11.6299 224.873 8.56738C224.845 4.82129 228.154 2.30566 232.802 2.30566C237.56 2.30566 240.541 4.84863 240.568 8.7041H235.564ZM241.56 6.79004V2.5791H258.623V6.79004H252.662V22.376H247.521V6.79004H241.56Z" fill="white"/>
</svg>
