<svg width="954" height="180" viewBox="0 0 954 180" fill="none" xmlns="http://www.w3.org/2000/svg">
<path d="M19.04 30.64H2.4V20.8H47.68V30.64H30.88V80H19.04V30.64ZM55.52 16.16H67.2V32.24L66.72 40.64C68.5333 38.9333 70.56 37.4133 72.8 36.08C75.0933 34.7467 77.76 34.08 80.8 34.08C85.6533 34.08 89.1733 35.68 91.36 38.88C93.5467 42.0267 94.64 46.4267 94.64 52.08V80H82.88V53.52C82.88 50.0533 82.3733 47.6267 81.36 46.24C80.4 44.8533 78.8 44.16 76.56 44.16C74.6933 44.16 73.0933 44.5867 71.76 45.44C70.4267 46.2933 68.9067 47.5467 67.2 49.2V80H55.52V16.16ZM125.332 81.12C122.185 81.12 119.252 80.5867 116.532 79.52C113.865 78.4533 111.519 76.9333 109.492 74.96C107.519 72.9333 105.945 70.48 104.772 67.6C103.652 64.6667 103.092 61.36 103.092 57.68C103.092 54.0533 103.679 50.8 104.852 47.92C106.025 44.9867 107.572 42.5067 109.492 40.48C111.465 38.4 113.705 36.8267 116.212 35.76C118.719 34.64 121.305 34.08 123.972 34.08C127.065 34.08 129.759 34.6133 132.052 35.68C134.399 36.7467 136.345 38.24 137.892 40.16C139.492 42.08 140.692 44.3467 141.492 46.96C142.292 49.5733 142.692 52.4267 142.692 55.52C142.692 56.5867 142.639 57.6267 142.532 58.64C142.425 59.6 142.292 60.3467 142.132 60.88H114.532C115.012 64.56 116.345 67.36 118.532 69.28C120.772 71.1467 123.572 72.08 126.932 72.08C128.799 72.08 130.532 71.8133 132.132 71.28C133.785 70.7467 135.412 69.9733 137.012 68.96L141.012 76.16C138.772 77.7067 136.292 78.9333 133.572 79.84C130.905 80.6933 128.159 81.12 125.332 81.12ZM132.612 53.12C132.612 50.08 131.919 47.68 130.532 45.92C129.145 44.1067 127.012 43.2 124.132 43.2C121.785 43.2 119.679 44.0533 117.812 45.76C115.945 47.4133 114.799 49.8667 114.372 53.12H132.612ZM273.811 20.8H310.131V30.64H285.651V44.32H306.451V54.24H285.651V70.08H311.011V80H273.811V20.8ZM321.27 35.2H330.87L331.67 41.12H331.99C333.963 39.2 336.123 37.5467 338.47 36.16C340.817 34.7733 343.51 34.08 346.55 34.08C351.403 34.08 354.923 35.68 357.11 38.88C359.297 42.0267 360.39 46.4267 360.39 52.08V80H348.63V53.52C348.63 50.0533 348.123 47.6267 347.11 46.24C346.15 44.8533 344.55 44.16 342.31 44.16C340.443 44.16 338.843 44.5867 337.51 45.44C336.177 46.2933 334.657 47.5467 332.95 49.2V80H321.27V35.2ZM366.52 35.2H378.36L384.92 57.52C385.507 59.76 386.093 62.0267 386.68 64.32C387.32 66.56 387.933 68.8267 388.52 71.12H388.92C389.507 68.8267 390.093 66.56 390.68 64.32C391.32 62.0267 391.933 59.76 392.52 57.52L399.08 35.2H410.36L395.4 80H381.8L366.52 35.2ZM417.014 35.2H428.694V80H417.014V35.2ZM422.934 28C420.907 28 419.227 27.4133 417.894 26.24C416.56 25.0133 415.894 23.4667 415.894 21.6C415.894 19.68 416.56 18.1333 417.894 16.96C419.227 15.7867 420.907 15.2 422.934 15.2C424.96 15.2 426.614 15.7867 427.894 16.96C429.227 18.1333 429.894 19.68 429.894 21.6C429.894 23.4667 429.227 25.0133 427.894 26.24C426.614 27.4133 424.96 28 422.934 28ZM440.511 35.2H450.111L450.911 43.12H451.231C452.884 40.1867 454.831 37.9467 457.071 36.4C459.311 34.8533 461.604 34.08 463.951 34.08C465.177 34.08 466.191 34.1867 466.991 34.4C467.791 34.56 468.537 34.7733 469.231 35.04L467.151 45.2C466.404 44.9333 465.657 44.7467 464.911 44.64C464.217 44.5333 463.417 44.48 462.511 44.48C460.751 44.48 458.911 45.1467 456.991 46.48C455.071 47.76 453.471 50.0267 452.191 53.28V80H440.511V35.2ZM493.274 81.12C490.448 81.12 487.728 80.5867 485.114 79.52C482.554 78.4533 480.288 76.9333 478.314 74.96C476.341 72.9333 474.741 70.48 473.514 67.6C472.341 64.6667 471.754 61.36 471.754 57.68C471.754 53.9467 472.341 50.6133 473.514 47.68C474.741 44.7467 476.341 42.2933 478.314 40.32C480.288 38.2933 482.554 36.7467 485.114 35.68C487.728 34.6133 490.448 34.08 493.274 34.08C496.048 34.08 498.741 34.6133 501.354 35.68C503.968 36.7467 506.261 38.2933 508.234 40.32C510.208 42.2933 511.781 44.7467 512.954 47.68C514.181 50.6133 514.794 53.9467 514.794 57.68C514.794 61.36 514.181 64.6667 512.954 67.6C511.781 70.48 510.208 72.9333 508.234 74.96C506.261 76.9333 503.968 78.4533 501.354 79.52C498.741 80.5867 496.048 81.12 493.274 81.12ZM493.274 71.52C496.314 71.52 498.661 70.2667 500.314 67.76C501.968 65.2533 502.794 61.8933 502.794 57.68C502.794 53.4133 501.968 50.0267 500.314 47.52C498.661 44.96 496.314 43.68 493.274 43.68C490.234 43.68 487.888 44.96 486.234 47.52C484.581 50.0267 483.754 53.4133 483.754 57.68C483.754 61.8933 484.581 65.2533 486.234 67.76C487.888 70.2667 490.234 71.52 493.274 71.52ZM523.833 35.2H533.433L534.233 41.12H534.553C536.526 39.2 538.686 37.5467 541.033 36.16C543.379 34.7733 546.073 34.08 549.113 34.08C553.966 34.08 557.486 35.68 559.673 38.88C561.859 42.0267 562.953 46.4267 562.953 52.08V80H551.193V53.52C551.193 50.0533 550.686 47.6267 549.673 46.24C548.713 44.8533 547.113 44.16 544.873 44.16C543.006 44.16 541.406 44.5867 540.073 45.44C538.739 46.2933 537.219 47.5467 535.513 49.2V80H523.833V35.2ZM574.283 35.2H583.883L584.683 41.2H585.003C586.869 39.2267 588.896 37.5467 591.083 36.16C593.269 34.7733 595.829 34.08 598.763 34.08C601.963 34.08 604.549 34.7733 606.523 36.16C608.496 37.4933 610.016 39.4133 611.083 41.92C613.109 39.7333 615.243 37.8933 617.483 36.4C619.776 34.8533 622.389 34.08 625.323 34.08C630.123 34.08 633.643 35.68 635.883 38.88C638.123 42.0267 639.243 46.4267 639.243 52.08V80H627.483V53.52C627.483 50.0533 626.976 47.6267 625.963 46.24C624.949 44.8533 623.376 44.16 621.243 44.16C618.683 44.16 615.803 45.84 612.603 49.2V80H600.843V53.52C600.843 50.0533 600.336 47.6267 599.323 46.24C598.309 44.8533 596.736 44.16 594.603 44.16C592.043 44.16 589.163 45.84 585.963 49.2V80H574.283V35.2ZM670.032 81.12C666.885 81.12 663.952 80.5867 661.232 79.52C658.565 78.4533 656.219 76.9333 654.192 74.96C652.219 72.9333 650.645 70.48 649.472 67.6C648.352 64.6667 647.792 61.36 647.792 57.68C647.792 54.0533 648.379 50.8 649.552 47.92C650.725 44.9867 652.272 42.5067 654.192 40.48C656.165 38.4 658.405 36.8267 660.912 35.76C663.419 34.64 666.005 34.08 668.672 34.08C671.765 34.08 674.459 34.6133 676.752 35.68C679.099 36.7467 681.045 38.24 682.592 40.16C684.192 42.08 685.392 44.3467 686.192 46.96C686.992 49.5733 687.392 52.4267 687.392 55.52C687.392 56.5867 687.339 57.6267 687.232 58.64C687.125 59.6 686.992 60.3467 686.832 60.88H659.232C659.712 64.56 661.045 67.36 663.232 69.28C665.472 71.1467 668.272 72.08 671.632 72.08C673.499 72.08 675.232 71.8133 676.832 71.28C678.485 70.7467 680.112 69.9733 681.712 68.96L685.712 76.16C683.472 77.7067 680.992 78.9333 678.272 79.84C675.605 80.6933 672.859 81.12 670.032 81.12ZM677.312 53.12C677.312 50.08 676.619 47.68 675.232 45.92C673.845 44.1067 671.712 43.2 668.832 43.2C666.485 43.2 664.379 44.0533 662.512 45.76C660.645 47.4133 659.499 49.8667 659.072 53.12H677.312ZM696.276 35.2H705.876L706.676 41.12H706.996C708.97 39.2 711.13 37.5467 713.476 36.16C715.823 34.7733 718.516 34.08 721.556 34.08C726.41 34.08 729.93 35.68 732.116 38.88C734.303 42.0267 735.396 46.4267 735.396 52.08V80H723.636V53.52C723.636 50.0533 723.13 47.6267 722.116 46.24C721.156 44.8533 719.556 44.16 717.316 44.16C715.45 44.16 713.85 44.5867 712.516 45.44C711.183 46.2933 709.663 47.5467 707.956 49.2V80H696.276V35.2ZM763.126 81.12C760.46 81.12 758.193 80.72 756.326 79.92C754.46 79.12 752.94 78 751.766 76.56C750.593 75.0667 749.74 73.28 749.206 71.2C748.673 69.12 748.406 66.8267 748.406 64.32V44.48H742.086V35.76L748.966 35.2L750.326 23.2H760.166V35.2H771.206V44.48H760.166V64.32C760.166 69.3333 762.193 71.84 766.246 71.84C766.993 71.84 767.766 71.76 768.566 71.6C769.366 71.3867 770.06 71.1467 770.646 70.88L772.566 79.44C771.34 79.8667 769.953 80.24 768.406 80.56C766.86 80.9333 765.1 81.12 763.126 81.12ZM814.285 98H802.685L808.925 80.24L791.565 35.2H803.405L810.525 56C811.218 58.0267 811.858 60.1067 812.445 62.24C813.032 64.32 813.645 66.4533 814.285 68.64H814.685C815.218 66.56 815.752 64.4533 816.285 62.32C816.818 60.1867 817.352 58.08 817.885 56L824.045 35.2H835.325L819.805 81.28L814.285 98ZM860.702 81.12C857.876 81.12 855.156 80.5867 852.542 79.52C849.982 78.4533 847.716 76.9333 845.742 74.96C843.769 72.9333 842.169 70.48 840.942 67.6C839.769 64.6667 839.182 61.36 839.182 57.68C839.182 53.9467 839.769 50.6133 840.942 47.68C842.169 44.7467 843.769 42.2933 845.742 40.32C847.716 38.2933 849.982 36.7467 852.542 35.68C855.156 34.6133 857.876 34.08 860.702 34.08C863.476 34.08 866.169 34.6133 868.782 35.68C871.396 36.7467 873.689 38.2933 875.662 40.32C877.636 42.2933 879.209 44.7467 880.382 47.68C881.609 50.6133 882.222 53.9467 882.222 57.68C882.222 61.36 881.609 64.6667 880.382 67.6C879.209 70.48 877.636 72.9333 875.662 74.96C873.689 76.9333 871.396 78.4533 868.782 79.52C866.169 80.5867 863.476 81.12 860.702 81.12ZM860.702 71.52C863.742 71.52 866.089 70.2667 867.742 67.76C869.396 65.2533 870.222 61.8933 870.222 57.68C870.222 53.4133 869.396 50.0267 867.742 47.52C866.089 44.96 863.742 43.68 860.702 43.68C857.662 43.68 855.316 44.96 853.662 47.52C852.009 50.0267 851.182 53.4133 851.182 57.68C851.182 61.8933 852.009 65.2533 853.662 67.76C855.316 70.2667 857.662 71.52 860.702 71.52ZM904.541 81.12C899.741 81.12 896.247 79.5467 894.061 76.4C891.874 73.2 890.781 68.8 890.781 63.2V35.2H902.541V61.68C902.541 65.2 903.021 67.6533 903.981 69.04C904.994 70.3733 906.594 71.04 908.781 71.04C910.647 71.04 912.247 70.6133 913.581 69.76C914.914 68.9067 916.354 67.4667 917.901 65.44V35.2H929.661V80H920.061L919.181 73.6H918.861C916.941 75.8933 914.834 77.7333 912.541 79.12C910.301 80.4533 907.634 81.12 904.541 81.12ZM2.16 115.2H13.92L18.8 137.36C19.2267 139.547 19.6 141.707 19.92 143.84C20.24 145.973 20.6133 148.16 21.04 150.4H21.36C21.7867 148.16 22.2133 145.973 22.64 143.84C23.0667 141.653 23.5733 139.493 24.16 137.36L29.52 115.2H40L45.6 137.36C46.1333 139.547 46.6133 141.707 47.04 143.84C47.4667 145.973 47.92 148.16 48.4 150.4H48.8C49.2267 148.16 49.6 145.973 49.92 143.84C50.24 141.707 50.6133 139.547 51.04 137.36L55.92 115.2H66.8L55.76 160H41.92L37.2 140.48C36.72 138.347 36.2667 136.24 35.84 134.16C35.4667 132.08 35.0667 129.84 34.64 127.44H34.24C33.8133 129.84 33.4133 132.107 33.04 134.24C32.6667 136.32 32.24 138.4 31.76 140.48L27.2 160H13.76L2.16 115.2ZM93.3025 161.12C90.4758 161.12 87.7558 160.587 85.1425 159.52C82.5825 158.453 80.3158 156.933 78.3425 154.96C76.3692 152.933 74.7692 150.48 73.5425 147.6C72.3692 144.667 71.7825 141.36 71.7825 137.68C71.7825 133.947 72.3692 130.613 73.5425 127.68C74.7692 124.747 76.3692 122.293 78.3425 120.32C80.3158 118.293 82.5825 116.747 85.1425 115.68C87.7558 114.613 90.4758 114.08 93.3025 114.08C96.0758 114.08 98.7692 114.613 101.382 115.68C103.996 116.747 106.289 118.293 108.262 120.32C110.236 122.293 111.809 124.747 112.982 127.68C114.209 130.613 114.822 133.947 114.822 137.68C114.822 141.36 114.209 144.667 112.982 147.6C111.809 150.48 110.236 152.933 108.262 154.96C106.289 156.933 103.996 158.453 101.382 159.52C98.7692 160.587 96.0758 161.12 93.3025 161.12ZM93.3025 151.52C96.3425 151.52 98.6892 150.267 100.342 147.76C101.996 145.253 102.822 141.893 102.822 137.68C102.822 133.413 101.996 130.027 100.342 127.52C98.6892 124.96 96.3425 123.68 93.3025 123.68C90.2625 123.68 87.9158 124.96 86.2625 127.52C84.6092 130.027 83.7825 133.413 83.7825 137.68C83.7825 141.893 84.6092 145.253 86.2625 147.76C87.9158 150.267 90.2625 151.52 93.3025 151.52ZM137.141 161.12C132.341 161.12 128.847 159.547 126.661 156.4C124.474 153.2 123.381 148.8 123.381 143.2V115.2H135.141V141.68C135.141 145.2 135.621 147.653 136.581 149.04C137.594 150.373 139.194 151.04 141.381 151.04C143.247 151.04 144.847 150.613 146.181 149.76C147.514 148.907 148.954 147.467 150.501 145.44V115.2H162.261V160H152.661L151.781 153.6H151.461C149.541 155.893 147.434 157.733 145.141 159.12C142.901 160.453 140.234 161.12 137.141 161.12ZM173.998 160V96.16H185.678V160H173.998ZM214.193 161.12C211.419 161.12 208.886 160.587 206.593 159.52C204.353 158.453 202.433 156.907 200.833 154.88C199.233 152.853 198.006 150.4 197.153 147.52C196.299 144.64 195.873 141.36 195.873 137.68C195.873 134 196.379 130.72 197.393 127.84C198.459 124.907 199.873 122.427 201.633 120.4C203.393 118.373 205.393 116.827 207.633 115.76C209.926 114.64 212.273 114.08 214.673 114.08C217.233 114.08 219.366 114.533 221.073 115.44C222.779 116.293 224.433 117.467 226.033 118.96L225.553 111.92V96.16H237.313V160H227.793L226.833 155.36H226.593C224.939 156.96 223.046 158.32 220.913 159.44C218.779 160.56 216.539 161.12 214.193 161.12ZM217.233 151.44C218.779 151.44 220.219 151.093 221.553 150.4C222.939 149.707 224.273 148.507 225.553 146.8V127.12C224.166 125.893 222.779 125.04 221.393 124.56C220.006 124.027 218.619 123.76 217.233 123.76C215.953 123.76 214.753 124.053 213.633 124.64C212.513 125.227 211.526 126.107 210.673 127.28C209.873 128.453 209.206 129.893 208.673 131.6C208.193 133.307 207.953 135.28 207.953 137.52C207.953 142.213 208.753 145.707 210.353 148C211.953 150.293 214.246 151.44 217.233 151.44ZM266.442 115.2H278.122V160H266.442V115.2ZM272.362 108C270.335 108 268.655 107.413 267.322 106.24C265.989 105.013 265.322 103.467 265.322 101.6C265.322 99.68 265.989 98.1333 267.322 96.96C268.655 95.7867 270.335 95.2 272.362 95.2C274.389 95.2 276.042 95.7867 277.322 96.96C278.655 98.1333 279.322 99.68 279.322 101.6C279.322 103.467 278.655 105.013 277.322 106.24C276.042 107.413 274.389 108 272.362 108ZM289.939 115.2H299.539L300.339 121.2H300.659C302.525 119.227 304.552 117.547 306.739 116.16C308.925 114.773 311.485 114.08 314.419 114.08C317.619 114.08 320.205 114.773 322.179 116.16C324.152 117.493 325.672 119.413 326.739 121.92C328.765 119.733 330.899 117.893 333.139 116.4C335.432 114.853 338.045 114.08 340.979 114.08C345.779 114.08 349.299 115.68 351.539 118.88C353.779 122.027 354.899 126.427 354.899 132.08V160H343.139V133.52C343.139 130.053 342.632 127.627 341.619 126.24C340.605 124.853 339.032 124.16 336.899 124.16C334.339 124.16 331.459 125.84 328.259 129.2V160H316.499V133.52C316.499 130.053 315.992 127.627 314.979 126.24C313.965 124.853 312.392 124.16 310.259 124.16C307.699 124.16 304.819 125.84 301.619 129.2V160H289.939V115.2ZM377.288 160.8C375.261 160.8 373.421 160.507 371.768 159.92C370.168 159.28 368.781 158.4 367.608 157.28C366.488 156.107 365.608 154.72 364.968 153.12C364.328 151.52 364.008 149.76 364.008 147.84C363.741 142.347 365.635 138.293 369.688 135.68C373.795 133.013 380.488 131.547 389.768 131.28C389.981 128.933 389.608 127.067 388.648 125.68C387.741 124.24 385.581 123.52 382.168 123.52C380.088 123.52 377.901 123.893 375.608 124.64C373.368 125.387 371.235 126.427 369.208 127.76L365.688 119.36C368.141 117.867 370.968 116.613 374.168 115.6C377.421 114.587 380.808 114.08 384.328 114.08C390.035 114.08 394.328 115.76 397.208 119.12C400.088 122.427 401.528 127.333 401.528 133.84V160H391.928L391.048 155.44H390.808C388.888 157.093 386.781 158.4 384.488 159.36C382.248 160.32 379.848 160.8 377.288 160.8ZM380.888 151.84C382.595 151.787 384.141 151.413 385.528 150.72C386.968 149.973 388.381 148.907 389.768 147.52V138.48C386.941 138.693 384.248 138.987 381.688 139.36C379.128 139.733 377.315 140.507 376.248 141.68C375.235 142.853 374.755 144.24 374.808 145.84C374.861 147.707 375.448 149.173 376.568 150.24C377.741 151.307 379.181 151.84 380.888 151.84ZM428.474 179.44C425.807 179.44 423.327 179.2 421.034 178.72C418.794 178.293 416.82 177.6 415.114 176.64C413.46 175.68 412.154 174.48 411.194 173.04C410.234 171.6 409.754 169.893 409.754 167.92C409.754 166.053 410.314 164.32 411.434 162.72C412.554 161.173 414.127 159.813 416.154 158.64V158.24C414.98 157.493 413.994 156.533 413.194 155.36C412.447 154.133 412.074 152.587 412.074 150.72C412.074 149.013 412.554 147.44 413.514 146C414.527 144.507 415.7 143.28 417.034 142.32V142C415.487 140.88 414.1 139.307 412.874 137.28C411.7 135.253 411.114 132.933 411.114 130.32C411.114 127.707 411.594 125.387 412.554 123.36C413.567 121.333 414.9 119.627 416.554 118.24C418.26 116.853 420.18 115.813 422.314 115.12C424.5 114.427 426.794 114.08 429.194 114.08C430.42 114.08 431.62 114.187 432.794 114.4C433.967 114.613 435.007 114.88 435.914 115.2H452.074V123.84H444.394C444.98 124.587 445.46 125.573 445.834 126.8C446.26 127.973 446.474 129.253 446.474 130.64C446.474 133.147 446.02 135.36 445.114 137.28C444.207 139.147 442.98 140.72 441.434 142C439.887 143.28 438.047 144.24 435.914 144.88C433.834 145.52 431.594 145.84 429.194 145.84C428.287 145.84 427.327 145.76 426.314 145.6C425.354 145.387 424.394 145.12 423.434 144.8C422.794 145.333 422.314 145.893 421.994 146.48C421.674 147.013 421.514 147.733 421.514 148.64C421.514 149.867 422.02 150.8 423.034 151.44C424.047 152.027 425.887 152.32 428.554 152.32H436.154C441.594 152.32 445.727 153.2 448.554 154.96C451.38 156.72 452.794 159.573 452.794 163.52C452.794 165.76 452.234 167.84 451.114 169.76C449.994 171.733 448.367 173.44 446.234 174.88C444.154 176.32 441.594 177.44 438.554 178.24C435.567 179.04 432.207 179.44 428.474 179.44ZM429.194 138.56C431.167 138.56 432.82 137.867 434.154 136.48C435.487 135.04 436.154 132.987 436.154 130.32C436.154 127.653 435.487 125.627 434.154 124.24C432.874 122.8 431.22 122.08 429.194 122.08C427.167 122.08 425.487 122.8 424.154 124.24C422.82 125.627 422.154 127.653 422.154 130.32C422.154 132.987 422.82 135.04 424.154 136.48C425.54 137.867 427.22 138.56 429.194 138.56ZM430.234 172C433.594 172 436.314 171.36 438.394 170.08C440.527 168.8 441.594 167.28 441.594 165.52C441.594 163.92 440.954 162.853 439.674 162.32C438.394 161.787 436.554 161.52 434.154 161.52H428.714C427.327 161.52 426.127 161.467 425.114 161.36C424.154 161.253 423.274 161.093 422.474 160.88C420.5 162.48 419.514 164.213 419.514 166.08C419.514 167.947 420.474 169.387 422.394 170.4C424.314 171.467 426.927 172 430.234 172ZM459.648 115.2H471.328V160H459.648V115.2ZM465.568 108C463.541 108 461.861 107.413 460.528 106.24C459.195 105.013 458.528 103.467 458.528 101.6C458.528 99.68 459.195 98.1333 460.528 96.96C461.861 95.7867 463.541 95.2 465.568 95.2C467.595 95.2 469.248 95.7867 470.528 96.96C471.861 98.1333 472.528 99.68 472.528 101.6C472.528 103.467 471.861 105.013 470.528 106.24C469.248 107.413 467.595 108 465.568 108ZM483.145 115.2H492.745L493.545 121.12H493.865C495.838 119.2 497.998 117.547 500.345 116.16C502.692 114.773 505.385 114.08 508.425 114.08C513.278 114.08 516.798 115.68 518.985 118.88C521.172 122.027 522.265 126.427 522.265 132.08V160H510.505V133.52C510.505 130.053 509.998 127.627 508.985 126.24C508.025 124.853 506.425 124.16 504.185 124.16C502.318 124.16 500.718 124.587 499.385 125.44C498.052 126.293 496.532 127.547 494.825 129.2V160H483.145V115.2ZM553.035 161.12C549.888 161.12 546.955 160.587 544.235 159.52C541.568 158.453 539.222 156.933 537.195 154.96C535.222 152.933 533.648 150.48 532.475 147.6C531.355 144.667 530.795 141.36 530.795 137.68C530.795 134.053 531.382 130.8 532.555 127.92C533.728 124.987 535.275 122.507 537.195 120.48C539.168 118.4 541.408 116.827 543.915 115.76C546.422 114.64 549.008 114.08 551.675 114.08C554.768 114.08 557.462 114.613 559.755 115.68C562.102 116.747 564.048 118.24 565.595 120.16C567.195 122.08 568.395 124.347 569.195 126.96C569.995 129.573 570.395 132.427 570.395 135.52C570.395 136.587 570.342 137.627 570.235 138.64C570.128 139.6 569.995 140.347 569.835 140.88H542.235C542.715 144.56 544.048 147.36 546.235 149.28C548.475 151.147 551.275 152.08 554.635 152.08C556.502 152.08 558.235 151.813 559.835 151.28C561.488 150.747 563.115 149.973 564.715 148.96L568.715 156.16C566.475 157.707 563.995 158.933 561.275 159.84C558.608 160.693 555.862 161.12 553.035 161.12ZM560.315 133.12C560.315 130.08 559.622 127.68 558.235 125.92C556.848 124.107 554.715 123.2 551.835 123.2C549.488 123.2 547.382 124.053 545.515 125.76C543.648 127.413 542.502 129.867 542.075 133.12H560.315Z" fill="white"/>
<path d="M198.449 47.3926V34.2613L202.239 31.2154V0.462891H196.81L178 16.2791L179.895 19.6935C183.823 19.2648 191.074 17.3771 193.297 16.5273V73.4446L179.895 77.3328V83.4923H202.239V50.4385L198.457 47.4001L198.449 47.3926Z" fill="white"/>
<path d="M226.07 77.3253L212.784 73.4822V0.462891H204.258V32.0201L200.468 35.0585V46.5878L204.258 49.6262V83.4848H226.07V77.3253Z" fill="white"/>
<path d="M235.564 8.7041C235.455 7.36426 234.58 6.59863 232.802 6.59863C231.08 6.59863 230.314 7.25488 230.287 8.18457C230.26 9.19629 231.189 9.77051 233.021 10.1533L234.662 10.5361C238.927 11.4385 240.814 13.5166 240.842 16.5518C240.814 20.4346 237.834 22.6221 232.83 22.6221C227.717 22.6221 224.408 20.3799 224.353 15.5127H229.33C229.412 17.3447 230.697 18.3291 232.748 18.3291C234.525 18.3291 235.482 17.5908 235.51 16.5518C235.482 15.5947 234.689 15.0479 232.474 14.5557L230.478 14.1182C227.006 13.3525 224.873 11.6299 224.873 8.56738C224.845 4.82129 228.154 2.30566 232.802 2.30566C237.56 2.30566 240.541 4.84863 240.568 8.7041H235.564ZM241.56 6.79004V2.5791H258.623V6.79004H252.662V22.376H247.521V6.79004H241.56Z" fill="white"/>
</svg>
