<svg width="989" height="178" viewBox="0 0 989 178" fill="none" xmlns="http://www.w3.org/2000/svg">
<path d="M19.04 30.64H2.4V20.8H47.68V30.64H30.88V80H19.04V30.64ZM55.52 16.16H67.2V32.24L66.72 40.64C68.5333 38.9333 70.56 37.4133 72.8 36.08C75.0933 34.7467 77.76 34.08 80.8 34.08C85.6533 34.08 89.1733 35.68 91.36 38.88C93.5467 42.0267 94.64 46.4267 94.64 52.08V80H82.88V53.52C82.88 50.0533 82.3733 47.6267 81.36 46.24C80.4 44.8533 78.8 44.16 76.56 44.16C74.6933 44.16 73.0933 44.5867 71.76 45.44C70.4267 46.2933 68.9067 47.5467 67.2 49.2V80H55.52V16.16ZM125.332 81.12C122.185 81.12 119.252 80.5867 116.532 79.52C113.865 78.4533 111.519 76.9333 109.492 74.96C107.519 72.9333 105.945 70.48 104.772 67.6C103.652 64.6667 103.092 61.36 103.092 57.68C103.092 54.0533 103.679 50.8 104.852 47.92C106.025 44.9867 107.572 42.5067 109.492 40.48C111.465 38.4 113.705 36.8267 116.212 35.76C118.719 34.64 121.305 34.08 123.972 34.08C127.065 34.08 129.759 34.6133 132.052 35.68C134.399 36.7467 136.345 38.24 137.892 40.16C139.492 42.08 140.692 44.3467 141.492 46.96C142.292 49.5733 142.692 52.4267 142.692 55.52C142.692 56.5867 142.639 57.6267 142.532 58.64C142.425 59.6 142.292 60.3467 142.132 60.88H114.532C115.012 64.56 116.345 67.36 118.532 69.28C120.772 71.1467 123.572 72.08 126.932 72.08C128.799 72.08 130.532 71.8133 132.132 71.28C133.785 70.7467 135.412 69.9733 137.012 68.96L141.012 76.16C138.772 77.7067 136.292 78.9333 133.572 79.84C130.905 80.6933 128.159 81.12 125.332 81.12ZM132.612 53.12C132.612 50.08 131.919 47.68 130.532 45.92C129.145 44.1067 127.012 43.2 124.132 43.2C121.785 43.2 119.679 44.0533 117.812 45.76C115.945 47.4133 114.799 49.8667 114.372 53.12H132.612ZM291.491 81.12C287.491 81.12 283.598 80.3733 279.811 78.88C276.078 77.3867 272.771 75.2533 269.891 72.48L276.691 64.32C278.825 66.2933 281.198 67.8933 283.811 69.12C286.478 70.2933 289.118 70.88 291.731 70.88C294.825 70.88 297.171 70.2667 298.771 69.04C300.371 67.8133 301.171 66.16 301.171 64.08C301.171 62.96 300.958 62.0267 300.531 61.28C300.105 60.5333 299.491 59.8667 298.691 59.28C297.945 58.6933 297.011 58.16 295.891 57.68C294.825 57.2 293.625 56.6667 292.291 56.08L284.371 52.72C282.878 52.08 281.411 51.3067 279.971 50.4C278.531 49.4933 277.251 48.4 276.131 47.12C275.011 45.7867 274.105 44.2933 273.411 42.64C272.718 40.9333 272.371 38.9867 272.371 36.8C272.371 34.4 272.878 32.16 273.891 30.08C274.905 27.9467 276.318 26.1333 278.131 24.64C279.945 23.0933 282.105 21.8933 284.611 21.04C287.118 20.1333 289.865 19.68 292.851 19.68C296.318 19.68 299.678 20.3467 302.931 21.68C306.185 22.96 309.011 24.8267 311.411 27.28L305.411 34.72C303.545 33.1733 301.598 31.9733 299.571 31.12C297.545 30.2667 295.305 29.84 292.851 29.84C290.238 29.84 288.158 30.4 286.611 31.52C285.065 32.5867 284.291 34.1067 284.291 36.08C284.291 37.1467 284.531 38.0533 285.011 38.8C285.545 39.5467 286.211 40.2133 287.011 40.8C287.865 41.3867 288.851 41.92 289.971 42.4C291.091 42.88 292.291 43.36 293.571 43.84L301.331 47.12C303.145 47.8667 304.771 48.72 306.211 49.68C307.705 50.64 308.958 51.76 309.971 53.04C311.038 54.32 311.838 55.8133 312.371 57.52C312.958 59.1733 313.251 61.0667 313.251 63.2C313.251 65.6 312.745 67.8933 311.731 70.08C310.771 72.2667 309.358 74.1867 307.491 75.84C305.625 77.44 303.331 78.72 300.611 79.68C297.945 80.64 294.905 81.12 291.491 81.12ZM341.413 81.12C338.266 81.12 335.333 80.5867 332.613 79.52C329.946 78.4533 327.6 76.9333 325.573 74.96C323.6 72.9333 322.026 70.48 320.853 67.6C319.733 64.6667 319.173 61.36 319.173 57.68C319.173 54.0533 319.76 50.8 320.933 47.92C322.106 44.9867 323.653 42.5067 325.573 40.48C327.546 38.4 329.786 36.8267 332.293 35.76C334.8 34.64 337.386 34.08 340.053 34.08C343.146 34.08 345.84 34.6133 348.133 35.68C350.48 36.7467 352.426 38.24 353.973 40.16C355.573 42.08 356.773 44.3467 357.573 46.96C358.373 49.5733 358.773 52.4267 358.773 55.52C358.773 56.5867 358.72 57.6267 358.613 58.64C358.506 59.6 358.373 60.3467 358.213 60.88H330.613C331.093 64.56 332.426 67.36 334.613 69.28C336.853 71.1467 339.653 72.08 343.013 72.08C344.88 72.08 346.613 71.8133 348.213 71.28C349.866 70.7467 351.493 69.9733 353.093 68.96L357.093 76.16C354.853 77.7067 352.373 78.9333 349.653 79.84C346.986 80.6933 344.24 81.12 341.413 81.12ZM348.693 53.12C348.693 50.08 348 47.68 346.613 45.92C345.226 44.1067 343.093 43.2 340.213 43.2C337.866 43.2 335.76 44.0533 333.893 45.76C332.026 47.4133 330.88 49.8667 330.453 53.12H348.693ZM367.657 35.2H377.257L378.057 43.12H378.377C380.031 40.1867 381.977 37.9467 384.217 36.4C386.457 34.8533 388.751 34.08 391.097 34.08C392.324 34.08 393.337 34.1867 394.137 34.4C394.937 34.56 395.684 34.7733 396.377 35.04L394.297 45.2C393.551 44.9333 392.804 44.7467 392.057 44.64C391.364 44.5333 390.564 44.48 389.657 44.48C387.897 44.48 386.057 45.1467 384.137 46.48C382.217 47.76 380.617 50.0267 379.337 53.28V80H367.657V35.2ZM396.501 35.2H408.341L414.901 57.52C415.488 59.76 416.075 62.0267 416.661 64.32C417.301 66.56 417.915 68.8267 418.501 71.12H418.901C419.488 68.8267 420.075 66.56 420.661 64.32C421.301 62.0267 421.915 59.76 422.501 57.52L429.061 35.2H440.341L425.381 80H411.781L396.501 35.2ZM446.995 35.2H458.675V80H446.995V35.2ZM452.915 28C450.888 28 449.208 27.4133 447.875 26.24C446.542 25.0133 445.875 23.4667 445.875 21.6C445.875 19.68 446.542 18.1333 447.875 16.96C449.208 15.7867 450.888 15.2 452.915 15.2C454.942 15.2 456.595 15.7867 457.875 16.96C459.208 18.1333 459.875 19.68 459.875 21.6C459.875 23.4667 459.208 25.0133 457.875 26.24C456.595 27.4133 454.942 28 452.915 28ZM489.532 81.12C486.439 81.12 483.559 80.5867 480.892 79.52C478.225 78.4533 475.905 76.9333 473.932 74.96C472.012 72.9333 470.492 70.48 469.372 67.6C468.252 64.6667 467.692 61.36 467.692 57.68C467.692 53.9467 468.305 50.6133 469.532 47.68C470.812 44.7467 472.492 42.2933 474.572 40.32C476.652 38.2933 479.079 36.7467 481.852 35.68C484.625 34.6133 487.532 34.08 490.572 34.08C493.345 34.08 495.799 34.56 497.932 35.52C500.065 36.48 501.959 37.6533 503.612 39.04L498.012 46.64C496.892 45.68 495.772 44.96 494.652 44.48C493.585 43.9467 492.412 43.68 491.132 43.68C487.719 43.68 484.945 44.96 482.812 47.52C480.732 50.0267 479.692 53.4133 479.692 57.68C479.692 61.8933 480.732 65.2533 482.812 67.76C484.892 70.2667 487.559 71.52 490.812 71.52C492.412 71.52 493.959 71.2 495.452 70.56C496.945 69.8667 498.305 68.9867 499.532 67.92L504.172 75.68C502.039 77.5467 499.692 78.9333 497.132 79.84C494.572 80.6933 492.039 81.12 489.532 81.12ZM528.898 81.12C525.751 81.12 522.818 80.5867 520.098 79.52C517.431 78.4533 515.084 76.9333 513.058 74.96C511.084 72.9333 509.511 70.48 508.338 67.6C507.218 64.6667 506.658 61.36 506.658 57.68C506.658 54.0533 507.244 50.8 508.418 47.92C509.591 44.9867 511.138 42.5067 513.058 40.48C515.031 38.4 517.271 36.8267 519.778 35.76C522.284 34.64 524.871 34.08 527.538 34.08C530.631 34.08 533.324 34.6133 535.618 35.68C537.964 36.7467 539.911 38.24 541.458 40.16C543.058 42.08 544.258 44.3467 545.058 46.96C545.858 49.5733 546.258 52.4267 546.258 55.52C546.258 56.5867 546.204 57.6267 546.098 58.64C545.991 59.6 545.858 60.3467 545.698 60.88H518.098C518.578 64.56 519.911 67.36 522.098 69.28C524.338 71.1467 527.138 72.08 530.498 72.08C532.364 72.08 534.098 71.8133 535.698 71.28C537.351 70.7467 538.978 69.9733 540.578 68.96L544.578 76.16C542.338 77.7067 539.858 78.9333 537.138 79.84C534.471 80.6933 531.724 81.12 528.898 81.12ZM536.178 53.12C536.178 50.08 535.484 47.68 534.098 45.92C532.711 44.1067 530.578 43.2 527.698 43.2C525.351 43.2 523.244 44.0533 521.378 45.76C519.511 47.4133 518.364 49.8667 517.938 53.12H536.178ZM589.907 98H578.307L584.547 80.24L567.187 35.2H579.027L586.147 56C586.84 58.0267 587.48 60.1067 588.067 62.24C588.654 64.32 589.267 66.4533 589.907 68.64H590.307C590.84 66.56 591.374 64.4533 591.907 62.32C592.44 60.1867 592.974 58.08 593.507 56L599.667 35.2H610.947L595.427 81.28L589.907 98ZM636.324 81.12C633.498 81.12 630.778 80.5867 628.164 79.52C625.604 78.4533 623.338 76.9333 621.364 74.96C619.391 72.9333 617.791 70.48 616.564 67.6C615.391 64.6667 614.804 61.36 614.804 57.68C614.804 53.9467 615.391 50.6133 616.564 47.68C617.791 44.7467 619.391 42.2933 621.364 40.32C623.338 38.2933 625.604 36.7467 628.164 35.68C630.778 34.6133 633.498 34.08 636.324 34.08C639.098 34.08 641.791 34.6133 644.404 35.68C647.018 36.7467 649.311 38.2933 651.284 40.32C653.258 42.2933 654.831 44.7467 656.004 47.68C657.231 50.6133 657.844 53.9467 657.844 57.68C657.844 61.36 657.231 64.6667 656.004 67.6C654.831 70.48 653.258 72.9333 651.284 74.96C649.311 76.9333 647.018 78.4533 644.404 79.52C641.791 80.5867 639.098 81.12 636.324 81.12ZM636.324 71.52C639.364 71.52 641.711 70.2667 643.364 67.76C645.018 65.2533 645.844 61.8933 645.844 57.68C645.844 53.4133 645.018 50.0267 643.364 47.52C641.711 44.96 639.364 43.68 636.324 43.68C633.284 43.68 630.938 44.96 629.284 47.52C627.631 50.0267 626.804 53.4133 626.804 57.68C626.804 61.8933 627.631 65.2533 629.284 67.76C630.938 70.2667 633.284 71.52 636.324 71.52ZM680.163 81.12C675.363 81.12 671.869 79.5467 669.683 76.4C667.496 73.2 666.403 68.8 666.403 63.2V35.2H678.163V61.68C678.163 65.2 678.643 67.6533 679.603 69.04C680.616 70.3733 682.216 71.04 684.403 71.04C686.269 71.04 687.869 70.6133 689.203 69.76C690.536 68.9067 691.976 67.4667 693.523 65.44V35.2H705.283V80H695.683L694.803 73.6H694.483C692.563 75.8933 690.456 77.7333 688.163 79.12C685.923 80.4533 683.256 81.12 680.163 81.12ZM730.185 35.2H741.945L746.825 57.36C747.252 59.5467 747.625 61.7067 747.945 63.84C748.265 65.9733 748.638 68.16 749.065 70.4H749.385C749.812 68.16 750.238 65.9733 750.665 63.84C751.092 61.6533 751.598 59.4933 752.185 57.36L757.545 35.2H768.025L773.625 57.36C774.158 59.5467 774.638 61.7067 775.065 63.84C775.492 65.9733 775.945 68.16 776.425 70.4H776.825C777.252 68.16 777.625 65.9733 777.945 63.84C778.265 61.7067 778.638 59.5467 779.065 57.36L783.945 35.2H794.825L783.785 80H769.945L765.225 60.48C764.745 58.3467 764.292 56.24 763.865 54.16C763.492 52.08 763.092 49.84 762.665 47.44H762.265C761.838 49.84 761.438 52.1067 761.065 54.24C760.692 56.32 760.265 58.4 759.785 60.48L755.225 80H741.785L730.185 35.2ZM821.327 81.12C818.501 81.12 815.781 80.5867 813.167 79.52C810.607 78.4533 808.341 76.9333 806.367 74.96C804.394 72.9333 802.794 70.48 801.567 67.6C800.394 64.6667 799.807 61.36 799.807 57.68C799.807 53.9467 800.394 50.6133 801.567 47.68C802.794 44.7467 804.394 42.2933 806.367 40.32C808.341 38.2933 810.607 36.7467 813.167 35.68C815.781 34.6133 818.501 34.08 821.327 34.08C824.101 34.08 826.794 34.6133 829.407 35.68C832.021 36.7467 834.314 38.2933 836.287 40.32C838.261 42.2933 839.834 44.7467 841.007 47.68C842.234 50.6133 842.847 53.9467 842.847 57.68C842.847 61.36 842.234 64.6667 841.007 67.6C839.834 70.48 838.261 72.9333 836.287 74.96C834.314 76.9333 832.021 78.4533 829.407 79.52C826.794 80.5867 824.101 81.12 821.327 81.12ZM821.327 71.52C824.367 71.52 826.714 70.2667 828.367 67.76C830.021 65.2533 830.847 61.8933 830.847 57.68C830.847 53.4133 830.021 50.0267 828.367 47.52C826.714 44.96 824.367 43.68 821.327 43.68C818.287 43.68 815.941 44.96 814.287 47.52C812.634 50.0267 811.807 53.4133 811.807 57.68C811.807 61.8933 812.634 65.2533 814.287 67.76C815.941 70.2667 818.287 71.52 821.327 71.52ZM865.166 81.12C860.366 81.12 856.872 79.5467 854.686 76.4C852.499 73.2 851.406 68.8 851.406 63.2V35.2H863.166V61.68C863.166 65.2 863.646 67.6533 864.606 69.04C865.619 70.3733 867.219 71.04 869.406 71.04C871.272 71.04 872.872 70.6133 874.206 69.76C875.539 68.9067 876.979 67.4667 878.526 65.44V35.2H890.286V80H880.686L879.806 73.6H879.486C877.566 75.8933 875.459 77.7333 873.166 79.12C870.926 80.4533 868.259 81.12 865.166 81.12ZM902.023 80V16.16H913.703V80H902.023ZM942.218 81.12C939.444 81.12 936.911 80.5867 934.618 79.52C932.378 78.4533 930.458 76.9067 928.858 74.88C927.258 72.8533 926.031 70.4 925.178 67.52C924.324 64.64 923.898 61.36 923.898 57.68C923.898 54 924.404 50.72 925.418 47.84C926.484 44.9067 927.898 42.4267 929.658 40.4C931.418 38.3733 933.418 36.8267 935.658 35.76C937.951 34.64 940.298 34.08 942.698 34.08C945.258 34.08 947.391 34.5333 949.098 35.44C950.804 36.2933 952.458 37.4667 954.058 38.96L953.578 31.92V16.16H965.338V80H955.818L954.858 75.36H954.618C952.964 76.96 951.071 78.32 948.938 79.44C946.804 80.56 944.564 81.12 942.218 81.12ZM945.258 71.44C946.804 71.44 948.244 71.0933 949.578 70.4C950.964 69.7067 952.298 68.5067 953.578 66.8V47.12C952.191 45.8933 950.804 45.04 949.418 44.56C948.031 44.0267 946.644 43.76 945.258 43.76C943.978 43.76 942.778 44.0533 941.658 44.64C940.538 45.2267 939.551 46.1067 938.698 47.28C937.898 48.4533 937.231 49.8933 936.698 51.6C936.218 53.3067 935.978 55.28 935.978 57.52C935.978 62.2133 936.778 65.7067 938.378 68C939.978 70.2933 942.271 71.44 945.258 71.44ZM25.76 161.12C22.6133 161.12 19.68 160.587 16.96 159.52C14.2933 158.453 11.9467 156.933 9.92 154.96C7.94667 152.933 6.37333 150.48 5.2 147.6C4.08 144.667 3.52 141.36 3.52 137.68C3.52 134.053 4.10667 130.8 5.28 127.92C6.45333 124.987 8 122.507 9.92 120.48C11.8933 118.4 14.1333 116.827 16.64 115.76C19.1467 114.64 21.7333 114.08 24.4 114.08C27.4933 114.08 30.1867 114.613 32.48 115.68C34.8267 116.747 36.7733 118.24 38.32 120.16C39.92 122.08 41.12 124.347 41.92 126.96C42.72 129.573 43.12 132.427 43.12 135.52C43.12 136.587 43.0667 137.627 42.96 138.64C42.8533 139.6 42.72 140.347 42.56 140.88H14.96C15.44 144.56 16.7733 147.36 18.96 149.28C21.2 151.147 24 152.08 27.36 152.08C29.2267 152.08 30.96 151.813 32.56 151.28C34.2133 150.747 35.84 149.973 37.44 148.96L41.44 156.16C39.2 157.707 36.72 158.933 34 159.84C31.3333 160.693 28.5867 161.12 25.76 161.12ZM33.04 133.12C33.04 130.08 32.3467 127.68 30.96 125.92C29.5733 124.107 27.44 123.2 24.56 123.2C22.2133 123.2 20.1067 124.053 18.24 125.76C16.3733 127.413 15.2267 129.867 14.8 133.12H33.04ZM59.7144 136.64L46.5944 115.2H59.2344L63.7144 123.2C65.0477 125.76 66.381 128.267 67.7144 130.72H68.0344C68.5677 129.493 69.101 128.24 69.6344 126.96C70.221 125.68 70.781 124.427 71.3144 123.2L75.0744 115.2H87.2344L74.1144 138L88.1144 160H75.4744L70.5144 151.84C69.7677 150.507 69.0477 149.173 68.3544 147.84C67.661 146.507 66.941 145.2 66.1944 143.92H65.7944C65.1544 145.2 64.5144 146.507 63.8744 147.84C63.2877 149.12 62.6744 150.453 62.0344 151.84L57.8744 160H45.7144L59.7144 136.64ZM94.8763 115.2H104.476L105.276 119.84H105.596C107.463 118.24 109.516 116.88 111.756 115.76C114.05 114.64 116.396 114.08 118.796 114.08C121.57 114.08 124.023 114.64 126.156 115.76C128.343 116.827 130.183 118.347 131.676 120.32C133.223 122.293 134.396 124.693 135.196 127.52C135.996 130.347 136.396 133.467 136.396 136.88C136.396 140.72 135.863 144.16 134.796 147.2C133.73 150.187 132.316 152.72 130.556 154.8C128.796 156.827 126.77 158.4 124.476 159.52C122.183 160.587 119.81 161.12 117.356 161.12C115.383 161.12 113.463 160.693 111.596 159.84C109.73 158.987 107.943 157.787 106.236 156.24L106.556 163.6V177.2H94.8763V115.2ZM114.716 151.44C117.436 151.44 119.703 150.267 121.516 147.92C123.383 145.573 124.316 141.947 124.316 137.04C124.316 132.72 123.596 129.44 122.156 127.2C120.77 124.907 118.53 123.76 115.436 123.76C113.89 123.76 112.396 124.16 110.956 124.96C109.57 125.707 108.103 126.853 106.556 128.4V148.08C107.996 149.307 109.41 150.187 110.796 150.72C112.183 151.2 113.49 151.44 114.716 151.44ZM165.001 161.12C161.854 161.12 158.921 160.587 156.201 159.52C153.534 158.453 151.187 156.933 149.161 154.96C147.187 152.933 145.614 150.48 144.441 147.6C143.321 144.667 142.761 141.36 142.761 137.68C142.761 134.053 143.347 130.8 144.521 127.92C145.694 124.987 147.241 122.507 149.161 120.48C151.134 118.4 153.374 116.827 155.881 115.76C158.387 114.64 160.974 114.08 163.641 114.08C166.734 114.08 169.427 114.613 171.721 115.68C174.067 116.747 176.014 118.24 177.561 120.16C179.161 122.08 180.361 124.347 181.161 126.96C181.961 129.573 182.361 132.427 182.361 135.52C182.361 136.587 182.307 137.627 182.201 138.64C182.094 139.6 181.961 140.347 181.801 140.88H154.201C154.681 144.56 156.014 147.36 158.201 149.28C160.441 151.147 163.241 152.08 166.601 152.08C168.467 152.08 170.201 151.813 171.801 151.28C173.454 150.747 175.081 149.973 176.681 148.96L180.681 156.16C178.441 157.707 175.961 158.933 173.241 159.84C170.574 160.693 167.827 161.12 165.001 161.12ZM172.281 133.12C172.281 130.08 171.587 127.68 170.201 125.92C168.814 124.107 166.681 123.2 163.801 123.2C161.454 123.2 159.347 124.053 157.481 125.76C155.614 127.413 154.467 129.867 154.041 133.12H172.281ZM191.245 115.2H200.845L201.645 123.12H201.965C203.618 120.187 205.565 117.947 207.805 116.4C210.045 114.853 212.338 114.08 214.685 114.08C215.912 114.08 216.925 114.187 217.725 114.4C218.525 114.56 219.272 114.773 219.965 115.04L217.885 125.2C217.138 124.933 216.392 124.747 215.645 124.64C214.952 124.533 214.152 124.48 213.245 124.48C211.485 124.48 209.645 125.147 207.725 126.48C205.805 127.76 204.205 130.027 202.925 133.28V160H191.245V115.2ZM225.289 115.2H236.969V160H225.289V115.2ZM231.209 108C229.182 108 227.502 107.413 226.169 106.24C224.835 105.013 224.169 103.467 224.169 101.6C224.169 99.68 224.835 98.1333 226.169 96.96C227.502 95.7867 229.182 95.2 231.209 95.2C233.235 95.2 234.889 95.7867 236.169 96.96C237.502 98.1333 238.169 99.68 238.169 101.6C238.169 103.467 237.502 105.013 236.169 106.24C234.889 107.413 233.235 108 231.209 108ZM268.226 161.12C265.079 161.12 262.146 160.587 259.426 159.52C256.759 158.453 254.412 156.933 252.386 154.96C250.412 152.933 248.839 150.48 247.666 147.6C246.546 144.667 245.986 141.36 245.986 137.68C245.986 134.053 246.572 130.8 247.746 127.92C248.919 124.987 250.466 122.507 252.386 120.48C254.359 118.4 256.599 116.827 259.106 115.76C261.612 114.64 264.199 114.08 266.866 114.08C269.959 114.08 272.652 114.613 274.946 115.68C277.292 116.747 279.239 118.24 280.786 120.16C282.386 122.08 283.586 124.347 284.386 126.96C285.186 129.573 285.586 132.427 285.586 135.52C285.586 136.587 285.532 137.627 285.426 138.64C285.319 139.6 285.186 140.347 285.026 140.88H257.426C257.906 144.56 259.239 147.36 261.426 149.28C263.666 151.147 266.466 152.08 269.826 152.08C271.692 152.08 273.426 151.813 275.026 151.28C276.679 150.747 278.306 149.973 279.906 148.96L283.906 156.16C281.666 157.707 279.186 158.933 276.466 159.84C273.799 160.693 271.052 161.12 268.226 161.12ZM275.506 133.12C275.506 130.08 274.812 127.68 273.426 125.92C272.039 124.107 269.906 123.2 267.026 123.2C264.679 123.2 262.572 124.053 260.706 125.76C258.839 127.413 257.692 129.867 257.266 133.12H275.506ZM294.47 115.2H304.07L304.87 121.12H305.19C307.163 119.2 309.323 117.547 311.67 116.16C314.017 114.773 316.71 114.08 319.75 114.08C324.603 114.08 328.123 115.68 330.31 118.88C332.497 122.027 333.59 126.427 333.59 132.08V160H321.83V133.52C321.83 130.053 321.323 127.627 320.31 126.24C319.35 124.853 317.75 124.16 315.51 124.16C313.643 124.16 312.043 124.587 310.71 125.44C309.377 126.293 307.857 127.547 306.15 129.2V160H294.47V115.2ZM363.96 161.12C360.867 161.12 357.987 160.587 355.32 159.52C352.653 158.453 350.333 156.933 348.36 154.96C346.44 152.933 344.92 150.48 343.8 147.6C342.68 144.667 342.12 141.36 342.12 137.68C342.12 133.947 342.733 130.613 343.96 127.68C345.24 124.747 346.92 122.293 349 120.32C351.08 118.293 353.507 116.747 356.28 115.68C359.053 114.613 361.96 114.08 365 114.08C367.773 114.08 370.227 114.56 372.36 115.52C374.493 116.48 376.387 117.653 378.04 119.04L372.44 126.64C371.32 125.68 370.2 124.96 369.08 124.48C368.013 123.947 366.84 123.68 365.56 123.68C362.147 123.68 359.373 124.96 357.24 127.52C355.16 130.027 354.12 133.413 354.12 137.68C354.12 141.893 355.16 145.253 357.24 147.76C359.32 150.267 361.987 151.52 365.24 151.52C366.84 151.52 368.387 151.2 369.88 150.56C371.373 149.867 372.733 148.987 373.96 147.92L378.6 155.68C376.467 157.547 374.12 158.933 371.56 159.84C369 160.693 366.467 161.12 363.96 161.12ZM403.326 161.12C400.179 161.12 397.246 160.587 394.526 159.52C391.859 158.453 389.512 156.933 387.486 154.96C385.512 152.933 383.939 150.48 382.766 147.6C381.646 144.667 381.086 141.36 381.086 137.68C381.086 134.053 381.672 130.8 382.846 127.92C384.019 124.987 385.566 122.507 387.486 120.48C389.459 118.4 391.699 116.827 394.206 115.76C396.712 114.64 399.299 114.08 401.966 114.08C405.059 114.08 407.752 114.613 410.046 115.68C412.392 116.747 414.339 118.24 415.886 120.16C417.486 122.08 418.686 124.347 419.486 126.96C420.286 129.573 420.686 132.427 420.686 135.52C420.686 136.587 420.632 137.627 420.526 138.64C420.419 139.6 420.286 140.347 420.126 140.88H392.526C393.006 144.56 394.339 147.36 396.526 149.28C398.766 151.147 401.566 152.08 404.926 152.08C406.792 152.08 408.526 151.813 410.126 151.28C411.779 150.747 413.406 149.973 415.006 148.96L419.006 156.16C416.766 157.707 414.286 158.933 411.566 159.84C408.899 160.693 406.152 161.12 403.326 161.12ZM410.606 133.12C410.606 130.08 409.912 127.68 408.526 125.92C407.139 124.107 405.006 123.2 402.126 123.2C399.779 123.2 397.672 124.053 395.806 125.76C393.939 127.413 392.792 129.867 392.366 133.12H410.606Z" fill="white"/>
<path d="M198.449 47.3926V34.2613L202.239 31.2154V0.462891H196.81L178 16.2791L179.895 19.6935C183.823 19.2648 191.074 17.3771 193.297 16.5273V73.4446L179.895 77.3328V83.4923H202.239V50.4385L198.457 47.4001L198.449 47.3926Z" fill="white"/>
<path d="M226.069 77.3253L212.784 73.4822V0.462891H204.257V32.0201L200.468 35.0585V46.5878L204.257 49.6262V83.4848H226.069V77.3253Z" fill="white"/>
<path d="M235.564 8.7041C235.455 7.36426 234.58 6.59863 232.803 6.59863C231.08 6.59863 230.314 7.25488 230.287 8.18457C230.26 9.19629 231.189 9.77051 233.021 10.1533L234.662 10.5361C238.928 11.4385 240.814 13.5166 240.842 16.5518C240.814 20.4346 237.834 22.6221 232.83 22.6221C227.717 22.6221 224.408 20.3799 224.354 15.5127H229.33C229.412 17.3447 230.697 18.3291 232.748 18.3291C234.525 18.3291 235.482 17.5908 235.51 16.5518C235.482 15.5947 234.689 15.0479 232.475 14.5557L230.479 14.1182C227.006 13.3525 224.873 11.6299 224.873 8.56738C224.846 4.82129 228.154 2.30566 232.803 2.30566C237.561 2.30566 240.541 4.84863 240.568 8.7041H235.564ZM241.56 6.79004V2.5791H258.623V6.79004H252.662V22.376H247.521V6.79004H241.56Z" fill="white"/>
</svg>
