<svg width="202" height="44" viewBox="0 0 202 44" fill="none" xmlns="http://www.w3.org/2000/svg">
<path d="M0 25.1337C0 32.8176 5.71617 40.523 15.4831 40.523C25.25 40.523 24.8417 37.5825 24.8417 37.5825L23.0796 33.4293C23.0796 33.4293 6.1352 39.042 6.1352 25.5415C6.1352 12.041 16.6328 13.1893 21.4141 14.2303L23.4879 10.1845C23.4879 10.1845 1.13894 3.123 0 25.1337Z" fill="white"/>
<path d="M57.8923 9.11157V39.8257H64.135V15.2823L76.3624 39.8257H85.0334V9.11157H79.1453V33.5799L66.2517 9.11157H57.8923Z" fill="white"/>
<path d="M115.119 9.11157H91.4265V14.4023H99.4313V39.8257H105.932V14.4023H112.379L115.119 9.11157Z" fill="white"/>
<path d="M126.572 26.733H137.511V21.2169H128.399L126.572 23.4277V14.3272H136.909L139.112 9.18669H126.572V9.11157H120.276V9.18669V14.3272V34.6852V36.6706V39.8257H136.909L139.112 34.6852H126.572V26.733Z" fill="white"/>
<path d="M37.832 26.733H48.7701V21.2169H39.6586L37.832 23.4277V14.3272H48.1684L50.3711 9.18669H37.832V9.11157H31.5356V9.18669V14.3272V34.6852V36.6706V39.8257H48.1684L50.3711 34.6852H37.832V26.733Z" fill="white"/>
<path d="M165.135 34.685L160.053 26.5826C163.136 25.7026 166.779 23.5026 166.779 18.0723C166.779 8.63914 157.7 9.11133 157.7 9.11133H146.525V39.8255H152.822V27.1728H154.036L161.836 39.8255H167.445L170.067 34.685H165.124H165.135ZM152.822 22.8908V14.3269H157.087C157.087 14.3269 161.6 14.1982 161.6 18.1367C161.6 22.0752 158.065 22.8801 157.216 22.8801H152.832L152.822 22.8908Z" fill="white"/>
<path d="M178.018 8.2558L185.625 1.44116H188.193V13.5573C188.193 13.5573 186.098 13.7934 186.098 17.3778C186.098 20.9621 188.193 21.1017 188.193 21.1017V33.7543H178.577V32.209L184.615 29.6548V7.3436L182.541 8.2558H178.018Z" fill="white"/>
<path d="M189.332 1.44116H192.448V29.6548L197.81 32.209V33.7543H189.332V20.4685C189.332 20.4685 187.215 19.9963 187.215 17.2919C187.215 14.5875 188.204 14.3621 189.332 13.8577V1.44116Z" fill="white"/>
</svg>
