<svg width="32" height="32" viewBox="0 0 32 32" fill="none" xmlns="http://www.w3.org/2000/svg">
<rect x="3.9" y="3.9" width="24.2" height="24.2" rx="12.1" stroke="#00427A" stroke-width="1.8"/>
<path d="M16.6364 9.3636C16.2849 9.01213 15.7151 9.01213 15.3636 9.3636L9.63604 15.0912C9.28457 15.4426 9.28457 16.0125 9.63604 16.364C9.98751 16.7154 10.5574 16.7154 10.9088 16.364L16 11.2728L21.0912 16.364C21.4426 16.7154 22.0125 16.7154 22.364 16.364C22.7154 16.0125 22.7154 15.4426 22.364 15.0912L16.6364 9.3636ZM15.1 22C15.1 22.4971 15.5029 22.9 16 22.9C16.4971 22.9 16.9 22.4971 16.9 22L15.1 22ZM15.1 10L15.1 22L16.9 22L16.9 10L15.1 10Z" fill="#00427A"/>
</svg>
