<svg width="532" height="138" viewBox="0 0 532 138" fill="none" xmlns="http://www.w3.org/2000/svg">
<g filter="url(#filter0_d_1_625)">
<path d="M20 75.2629C20 94.298 34.2055 113.386 58.4778 113.386C82.75 113.386 81.7353 106.102 81.7353 106.102L77.3562 95.8134C77.3562 95.8134 35.2469 109.718 35.2469 76.2731C35.2469 42.8288 61.3349 45.6734 73.2173 48.2522L78.3709 38.2295C78.3709 38.2295 22.8304 20.7363 20 75.2629Z" fill="white"/>
<path d="M163.871 35.5713V111.659H179.385V50.8579L209.772 111.659H231.321V35.5713H216.688V96.1859L184.645 35.5713H163.871Z" fill="white"/>
<path d="M306.087 35.5713H247.209V48.6779H267.102V111.659H283.257V48.6779H299.278L306.087 35.5713Z" fill="white"/>
<path d="M334.551 79.2245H361.734V65.5596H339.091L334.551 71.0362V48.4918H360.239L365.713 35.7574H334.551V35.5713H318.904V35.7574V48.4918V98.9242V103.843V111.659H360.239L365.713 98.9242H334.551V79.2245Z" fill="white"/>
<path d="M114.019 79.2245H141.201V65.5596H118.558L114.019 71.0362V48.4918H139.706L145.18 35.7574H114.019V35.5713H98.3711V35.7574V48.4918V98.9242V103.843V111.659H139.706L145.18 98.9242H114.019V79.2245Z" fill="white"/>
<path d="M430.385 98.9236L417.755 78.8517C425.418 76.6717 434.47 71.2217 434.47 57.7695C434.47 34.401 411.907 35.5707 411.907 35.5707H384.137V111.658H399.784V80.3139H402.802L422.187 111.658H436.126L442.641 98.9236H430.358H430.385ZM399.784 69.7063V48.4912H410.385C410.385 48.4912 421.6 48.1722 421.6 57.929C421.6 67.6858 412.815 69.6797 410.706 69.6797H399.811L399.784 69.7063Z" fill="white"/>
<path d="M462.401 33.4515L481.306 16.5698H487.688V46.5847C487.688 46.5847 482.481 47.1696 482.481 56.0491C482.481 64.9286 487.688 65.2742 487.688 65.2742V96.6184H463.789V92.7901L478.796 86.4628V31.1918L473.642 33.4515H462.401Z" fill="white"/>
<path d="M490.518 16.5698H498.261V86.4628L511.586 92.7901V96.6184H490.518V63.7057C490.518 63.7057 485.258 62.5359 485.258 55.8364C485.258 49.1369 487.714 48.5786 490.518 47.3291V16.5698Z" fill="white"/>
</g>
<defs>
<filter id="filter0_d_1_625" x="0" y="0.569824" width="531.586" height="136.816" filterUnits="userSpaceOnUse" color-interpolation-filters="sRGB">
<feFlood flood-opacity="0" result="BackgroundImageFix"/>
<feColorMatrix in="SourceAlpha" type="matrix" values="0 0 0 0 0 0 0 0 0 0 0 0 0 0 0 0 0 0 127 0" result="hardAlpha"/>
<feOffset dy="4"/>
<feGaussianBlur stdDeviation="10"/>
<feComposite in2="hardAlpha" operator="out"/>
<feColorMatrix type="matrix" values="0 0 0 0 0 0 0 0 0 0.258824 0 0 0 0 0.478431 0 0 0 0.7 0"/>
<feBlend mode="normal" in2="BackgroundImageFix" result="effect1_dropShadow_1_625"/>
<feBlend mode="normal" in="SourceGraphic" in2="effect1_dropShadow_1_625" result="shape"/>
</filter>
</defs>
</svg>
