<svg width="890" height="144" viewBox="0 0 890 144" fill="none" xmlns="http://www.w3.org/2000/svg">
<g filter="url(#filter0_d_1_624)">
<path d="M20.194 18.84H42.17L59.054 65.204C60.126 68.3307 61.1533 71.502 62.136 74.718C63.1187 77.934 64.1013 81.15 65.084 84.366H65.754C66.826 81.15 67.8087 77.934 68.702 74.718C69.6847 71.502 70.712 68.3307 71.784 65.204L88.266 18.84H110.242V118H92.152V76.594C92.152 74.2713 92.2413 71.7253 92.42 68.956C92.5987 66.0973 92.7773 63.2387 92.956 60.38C93.224 57.432 93.492 54.5733 93.76 51.804C94.028 48.9453 94.296 46.3547 94.564 44.032H94.028L85.988 67.348L70.712 109.022H59.322L43.912 67.348L36.006 44.032H35.47C35.738 46.3547 36.006 48.9453 36.274 51.804C36.542 54.5733 36.81 57.432 37.078 60.38C37.346 63.2387 37.5693 66.0973 37.748 68.956C37.9267 71.7253 38.016 74.2713 38.016 76.594V118H20.194V18.84ZM134.565 18.84H154.397V118H134.565V18.84ZM198.628 64.802H211.492C217.924 64.802 222.792 63.5067 226.098 60.916C229.492 58.236 231.19 54.216 231.19 48.856C231.19 43.496 229.492 39.7887 226.098 37.734C222.792 35.59 217.924 34.518 211.492 34.518H198.628V64.802ZM232.798 118L212.43 80.48H198.628V118H178.796V18.84H213.368C218.549 18.84 223.418 19.3313 227.974 20.314C232.53 21.2967 236.46 22.9493 239.766 25.272C243.16 27.5947 245.796 30.6767 247.672 34.518C249.637 38.3593 250.62 43.1387 250.62 48.856C250.62 56.36 248.878 62.4347 245.394 67.08C241.999 71.7253 237.443 75.1647 231.726 77.398L254.908 118H232.798ZM312.345 77.13L309.397 66.276C307.879 61.0947 306.405 55.7347 304.975 50.196C303.635 44.6573 302.206 39.208 300.687 33.848H300.151C298.901 39.2973 297.561 44.7913 296.131 50.33C294.702 55.7793 293.228 61.0947 291.709 66.276L288.761 77.13H312.345ZM316.633 92.54H284.473L277.505 118H257.405L289.163 18.84H312.479L344.371 118H323.601L316.633 92.54ZM355.979 18.84H416.815V35.322H375.811V58.236H410.651V74.852H375.811V101.384H418.289V118H355.979V18.84ZM510.99 77.13L508.042 66.276C506.523 61.0947 505.049 55.7347 503.62 50.196C502.28 44.6573 500.851 39.208 499.332 33.848H498.796C497.545 39.2973 496.205 44.7913 494.776 50.33C493.347 55.7793 491.873 61.0947 490.354 66.276L487.406 77.13H510.99ZM515.278 92.54H483.118L476.15 118H456.05L487.808 18.84H511.124L543.016 118H522.246L515.278 92.54ZM584.238 119.876C577.538 119.876 571.016 118.625 564.674 116.124C558.42 113.623 552.882 110.049 548.058 105.404L559.448 91.736C563.021 95.0413 566.996 97.7213 571.374 99.776C575.84 101.741 580.262 102.724 584.64 102.724C589.821 102.724 593.752 101.697 596.432 99.642C599.112 97.5873 600.452 94.818 600.452 91.334C600.452 89.458 600.094 87.8947 599.38 86.644C598.665 85.3933 597.638 84.2767 596.298 83.294C595.047 82.3113 593.484 81.418 591.608 80.614C589.821 79.81 587.811 78.9167 585.578 77.934L572.312 72.306C569.81 71.234 567.354 69.9387 564.942 68.42C562.53 66.9013 560.386 65.07 558.51 62.926C556.634 60.6927 555.115 58.1913 553.954 55.422C552.792 52.5633 552.212 49.3027 552.212 45.64C552.212 41.62 553.06 37.868 554.758 34.384C556.455 30.8107 558.822 27.7733 561.86 25.272C564.897 22.6813 568.515 20.6713 572.714 19.242C576.912 17.7233 581.513 16.964 586.516 16.964C592.322 16.964 597.95 18.0807 603.4 20.314C608.849 22.458 613.584 25.5847 617.604 29.694L607.554 42.156C604.427 39.5653 601.166 37.5553 597.772 36.126C594.377 34.6967 590.625 33.982 586.516 33.982C582.138 33.982 578.654 34.92 576.064 36.796C573.473 38.5827 572.178 41.1287 572.178 44.434C572.178 46.2207 572.58 47.7393 573.384 48.99C574.277 50.2407 575.394 51.3573 576.734 52.34C578.163 53.3227 579.816 54.216 581.692 55.02C583.568 55.824 585.578 56.628 587.722 57.432L600.72 62.926C603.757 64.1767 606.482 65.606 608.894 67.214C611.395 68.822 613.494 70.698 615.192 72.842C616.978 74.986 618.318 77.4873 619.212 80.346C620.194 83.1153 620.686 86.2867 620.686 89.86C620.686 93.88 619.837 97.7213 618.14 101.384C616.532 105.047 614.164 108.263 611.038 111.032C607.911 113.712 604.07 115.856 599.514 117.464C595.047 119.072 589.955 119.876 584.238 119.876ZM665.371 119.876C658.671 119.876 652.149 118.625 645.807 116.124C639.553 113.623 634.015 110.049 629.191 105.404L640.581 91.736C644.154 95.0413 648.129 97.7213 652.507 99.776C656.973 101.741 661.395 102.724 665.773 102.724C670.954 102.724 674.885 101.697 677.565 99.642C680.245 97.5873 681.585 94.818 681.585 91.334C681.585 89.458 681.227 87.8947 680.513 86.644C679.798 85.3933 678.771 84.2767 677.431 83.294C676.18 82.3113 674.617 81.418 672.741 80.614C670.954 79.81 668.944 78.9167 666.711 77.934L653.445 72.306C650.943 71.234 648.487 69.9387 646.075 68.42C643.663 66.9013 641.519 65.07 639.643 62.926C637.767 60.6927 636.248 58.1913 635.087 55.422C633.925 52.5633 633.345 49.3027 633.345 45.64C633.345 41.62 634.193 37.868 635.891 34.384C637.588 30.8107 639.955 27.7733 642.993 25.272C646.03 22.6813 649.648 20.6713 653.847 19.242C658.045 17.7233 662.646 16.964 667.649 16.964C673.455 16.964 679.083 18.0807 684.533 20.314C689.982 22.458 694.717 25.5847 698.737 29.694L688.687 42.156C685.56 39.5653 682.299 37.5553 678.905 36.126C675.51 34.6967 671.758 33.982 667.649 33.982C663.271 33.982 659.787 34.92 657.197 36.796C654.606 38.5827 653.311 41.1287 653.311 44.434C653.311 46.2207 653.713 47.7393 654.517 48.99C655.41 50.2407 656.527 51.3573 657.867 52.34C659.296 53.3227 660.949 54.216 662.825 55.02C664.701 55.824 666.711 56.628 668.855 57.432L681.853 62.926C684.89 64.1767 687.615 65.606 690.027 67.214C692.528 68.822 694.627 70.698 696.325 72.842C698.111 74.986 699.451 77.4873 700.345 80.346C701.327 83.1153 701.819 86.2867 701.819 89.86C701.819 93.88 700.97 97.7213 699.272 101.384C697.665 105.047 695.297 108.263 692.171 111.032C689.044 113.712 685.203 115.856 680.647 117.464C676.18 119.072 671.088 119.876 665.371 119.876ZM719.376 18.84H780.212V35.322H739.208V58.236H774.048V74.852H739.208V101.384H781.686V118H719.376V18.84ZM821.515 35.322H793.643V18.84H869.487V35.322H841.347V118H821.515V35.322Z" fill="white"/>
</g>
<defs>
<filter id="filter0_d_1_624" x="0.194092" y="0.964111" width="889.293" height="142.912" filterUnits="userSpaceOnUse" color-interpolation-filters="sRGB">
<feFlood flood-opacity="0" result="BackgroundImageFix"/>
<feColorMatrix in="SourceAlpha" type="matrix" values="0 0 0 0 0 0 0 0 0 0 0 0 0 0 0 0 0 0 127 0" result="hardAlpha"/>
<feOffset dy="4"/>
<feGaussianBlur stdDeviation="10"/>
<feComposite in2="hardAlpha" operator="out"/>
<feColorMatrix type="matrix" values="0 0 0 0 0 0 0 0 0 0.258824 0 0 0 0 0.478431 0 0 0 0.5 0"/>
<feBlend mode="normal" in2="BackgroundImageFix" result="effect1_dropShadow_1_624"/>
<feBlend mode="normal" in="SourceGraphic" in2="effect1_dropShadow_1_624" result="shape"/>
</filter>
</defs>
</svg>
